%TF.GenerationSoftware,KiCad,Pcbnew,6.0.11-3.fc36*%
%TF.CreationDate,2023-03-05T15:36:13+00:00*%
%TF.ProjectId,68hc11,36386863-3131-42e6-9b69-6361645f7063,rev?*%
%TF.SameCoordinates,Original*%
%TF.FileFunction,Drillmap*%
%TF.FilePolarity,Positive*%
%FSLAX45Y45*%
G04 Gerber Fmt 4.5, Leading zero omitted, Abs format (unit mm)*
G04 Created by KiCad (PCBNEW 6.0.11-3.fc36) date 2023-03-05 15:36:13*
%MOMM*%
%LPD*%
G01*
G04 APERTURE LIST*
%ADD10C,0.150000*%
%ADD11C,0.200000*%
G04 APERTURE END LIST*
D10*
X12995000Y-12360000D02*
X12994640Y-3529584D01*
X12994640Y-3529584D02*
X4394200Y-3530600D01*
X4394200Y-12355000D02*
X12995000Y-12360000D01*
X4394200Y-3530600D02*
X4394200Y-12355000D01*
D11*
X4644319Y-12677976D02*
X4644319Y-12477976D01*
X4691938Y-12477976D01*
X4720510Y-12487500D01*
X4739557Y-12506548D01*
X4749081Y-12525595D01*
X4758605Y-12563690D01*
X4758605Y-12592262D01*
X4749081Y-12630357D01*
X4739557Y-12649405D01*
X4720510Y-12668452D01*
X4691938Y-12677976D01*
X4644319Y-12677976D01*
X4844319Y-12677976D02*
X4844319Y-12544643D01*
X4844319Y-12582738D02*
X4853843Y-12563690D01*
X4863367Y-12554167D01*
X4882414Y-12544643D01*
X4901462Y-12544643D01*
X4968129Y-12677976D02*
X4968129Y-12544643D01*
X4968129Y-12477976D02*
X4958605Y-12487500D01*
X4968129Y-12497024D01*
X4977652Y-12487500D01*
X4968129Y-12477976D01*
X4968129Y-12497024D01*
X5091938Y-12677976D02*
X5072890Y-12668452D01*
X5063367Y-12649405D01*
X5063367Y-12477976D01*
X5196700Y-12677976D02*
X5177652Y-12668452D01*
X5168129Y-12649405D01*
X5168129Y-12477976D01*
X5425271Y-12677976D02*
X5425271Y-12477976D01*
X5491938Y-12620833D01*
X5558605Y-12477976D01*
X5558605Y-12677976D01*
X5739557Y-12677976D02*
X5739557Y-12573214D01*
X5730033Y-12554167D01*
X5710986Y-12544643D01*
X5672890Y-12544643D01*
X5653843Y-12554167D01*
X5739557Y-12668452D02*
X5720509Y-12677976D01*
X5672890Y-12677976D01*
X5653843Y-12668452D01*
X5644319Y-12649405D01*
X5644319Y-12630357D01*
X5653843Y-12611309D01*
X5672890Y-12601786D01*
X5720509Y-12601786D01*
X5739557Y-12592262D01*
X5834795Y-12544643D02*
X5834795Y-12744643D01*
X5834795Y-12554167D02*
X5853843Y-12544643D01*
X5891938Y-12544643D01*
X5910986Y-12554167D01*
X5920509Y-12563690D01*
X5930033Y-12582738D01*
X5930033Y-12639881D01*
X5920509Y-12658928D01*
X5910986Y-12668452D01*
X5891938Y-12677976D01*
X5853843Y-12677976D01*
X5834795Y-12668452D01*
X6015748Y-12658928D02*
X6025271Y-12668452D01*
X6015748Y-12677976D01*
X6006224Y-12668452D01*
X6015748Y-12658928D01*
X6015748Y-12677976D01*
X6015748Y-12554167D02*
X6025271Y-12563690D01*
X6015748Y-12573214D01*
X6006224Y-12563690D01*
X6015748Y-12554167D01*
X6015748Y-12573214D01*
M02*
