G04 #@! TF.GenerationSoftware,KiCad,Pcbnew,6.0.11-3.fc36*
G04 #@! TF.CreationDate,2023-03-05T15:34:22+00:00*
G04 #@! TF.ProjectId,68hc11,36386863-3131-42e6-9b69-6361645f7063,rev?*
G04 #@! TF.SameCoordinates,Original*
G04 #@! TF.FileFunction,Soldermask,Bot*
G04 #@! TF.FilePolarity,Negative*
%FSLAX46Y46*%
G04 Gerber Fmt 4.6, Leading zero omitted, Abs format (unit mm)*
G04 Created by KiCad (PCBNEW 6.0.11-3.fc36) date 2023-03-05 15:34:22*
%MOMM*%
%LPD*%
G01*
G04 APERTURE LIST*
G04 Aperture macros list*
%AMRoundRect*
0 Rectangle with rounded corners*
0 $1 Rounding radius*
0 $2 $3 $4 $5 $6 $7 $8 $9 X,Y pos of 4 corners*
0 Add a 4 corners polygon primitive as box body*
4,1,4,$2,$3,$4,$5,$6,$7,$8,$9,$2,$3,0*
0 Add four circle primitives for the rounded corners*
1,1,$1+$1,$2,$3*
1,1,$1+$1,$4,$5*
1,1,$1+$1,$6,$7*
1,1,$1+$1,$8,$9*
0 Add four rect primitives between the rounded corners*
20,1,$1+$1,$2,$3,$4,$5,0*
20,1,$1+$1,$4,$5,$6,$7,0*
20,1,$1+$1,$6,$7,$8,$9,0*
20,1,$1+$1,$8,$9,$2,$3,0*%
G04 Aperture macros list end*
%ADD10C,2.000000*%
%ADD11O,2.000000X2.000000*%
%ADD12RoundRect,0.200000X-0.800000X-0.800000X0.800000X-0.800000X0.800000X0.800000X-0.800000X0.800000X0*%
%ADD13O,1.300000X1.900000*%
%ADD14RoundRect,0.200000X0.450000X0.750000X-0.450000X0.750000X-0.450000X-0.750000X0.450000X-0.750000X0*%
%ADD15C,1.900000*%
%ADD16RoundRect,0.200000X0.850000X-0.850000X0.850000X0.850000X-0.850000X0.850000X-0.850000X-0.850000X0*%
%ADD17O,2.100000X2.100000*%
%ADD18RoundRect,0.200000X-0.850000X0.850000X-0.850000X-0.850000X0.850000X-0.850000X0.850000X0.850000X0*%
%ADD19RoundRect,0.200000X-0.850000X-0.850000X0.850000X-0.850000X0.850000X0.850000X-0.850000X0.850000X0*%
%ADD20RoundRect,0.200000X0.850000X0.850000X-0.850000X0.850000X-0.850000X-0.850000X0.850000X-0.850000X0*%
G04 APERTURE END LIST*
D10*
X104850000Y-109900000D03*
D11*
X94690000Y-109900000D03*
D12*
X112100360Y-44912280D03*
D11*
X119720360Y-62692280D03*
X112100360Y-47452280D03*
X119720360Y-60152280D03*
X112100360Y-49992280D03*
X119720360Y-57612280D03*
X112100360Y-52532280D03*
X119720360Y-55072280D03*
X112100360Y-55072280D03*
X119720360Y-52532280D03*
X112100360Y-57612280D03*
X119720360Y-49992280D03*
X112100360Y-60152280D03*
X119720360Y-47452280D03*
X112100360Y-62692280D03*
X119720360Y-44912280D03*
D12*
X74432160Y-81346040D03*
D11*
X82052160Y-104206040D03*
X74432160Y-83886040D03*
X82052160Y-101666040D03*
X74432160Y-86426040D03*
X82052160Y-99126040D03*
X74432160Y-88966040D03*
X82052160Y-96586040D03*
X74432160Y-91506040D03*
X82052160Y-94046040D03*
X74432160Y-94046040D03*
X82052160Y-91506040D03*
X74432160Y-96586040D03*
X82052160Y-88966040D03*
X74432160Y-99126040D03*
X82052160Y-86426040D03*
X74432160Y-101666040D03*
X82052160Y-83886040D03*
X74432160Y-104206040D03*
X82052160Y-81346040D03*
D12*
X54610000Y-58420000D03*
D11*
X69850000Y-116840000D03*
X54610000Y-60960000D03*
X69850000Y-114300000D03*
X54610000Y-63500000D03*
X69850000Y-111760000D03*
X54610000Y-66040000D03*
X69850000Y-109220000D03*
X54610000Y-68580000D03*
X69850000Y-106680000D03*
X54610000Y-71120000D03*
X69850000Y-104140000D03*
X54610000Y-73660000D03*
X69850000Y-101600000D03*
X54610000Y-76200000D03*
X69850000Y-99060000D03*
X54610000Y-78740000D03*
X69850000Y-96520000D03*
X54610000Y-81280000D03*
X69850000Y-93980000D03*
X54610000Y-83820000D03*
X69850000Y-91440000D03*
X54610000Y-86360000D03*
X69850000Y-88900000D03*
X54610000Y-88900000D03*
X69850000Y-86360000D03*
X54610000Y-91440000D03*
X69850000Y-83820000D03*
X54610000Y-93980000D03*
X69850000Y-81280000D03*
X54610000Y-96520000D03*
X69850000Y-78740000D03*
X54610000Y-99060000D03*
X69850000Y-76200000D03*
X54610000Y-101600000D03*
X69850000Y-73660000D03*
X54610000Y-104140000D03*
X69850000Y-71120000D03*
X54610000Y-106680000D03*
X69850000Y-68580000D03*
X54610000Y-109220000D03*
X69850000Y-66040000D03*
X54610000Y-111760000D03*
X69850000Y-63500000D03*
X54610000Y-114300000D03*
X69850000Y-60960000D03*
X54610000Y-116840000D03*
X69850000Y-58420000D03*
D10*
X97317560Y-61706760D03*
X94817560Y-61706760D03*
X54500000Y-45000000D03*
D11*
X54500000Y-55160000D03*
D12*
X109621320Y-71231760D03*
D11*
X124861320Y-104251760D03*
X109621320Y-73771760D03*
X124861320Y-101711760D03*
X109621320Y-76311760D03*
X124861320Y-99171760D03*
X109621320Y-78851760D03*
X124861320Y-96631760D03*
X109621320Y-81391760D03*
X124861320Y-94091760D03*
X109621320Y-83931760D03*
X124861320Y-91551760D03*
X109621320Y-86471760D03*
X124861320Y-89011760D03*
X109621320Y-89011760D03*
X124861320Y-86471760D03*
X109621320Y-91551760D03*
X124861320Y-83931760D03*
X109621320Y-94091760D03*
X124861320Y-81391760D03*
X109621320Y-96631760D03*
X124861320Y-78851760D03*
X109621320Y-99171760D03*
X124861320Y-76311760D03*
X109621320Y-101711760D03*
X124861320Y-73771760D03*
X109621320Y-104251760D03*
X124861320Y-71231760D03*
D12*
X60325000Y-40640000D03*
D10*
X62325000Y-40640000D03*
X104850000Y-116750000D03*
D11*
X94690000Y-116750000D03*
D10*
X48600000Y-106900000D03*
D11*
X48600000Y-117060000D03*
D10*
X75332040Y-48158120D03*
D11*
X65172040Y-48158120D03*
D10*
X75438720Y-44652920D03*
D11*
X85598720Y-44652920D03*
D10*
X75616520Y-37368200D03*
D11*
X65456520Y-37368200D03*
D10*
X75616520Y-40670200D03*
D11*
X65456520Y-40670200D03*
D10*
X47640240Y-56007000D03*
D11*
X47640240Y-66167000D03*
D10*
X91200000Y-117400000D03*
D11*
X91200000Y-107240000D03*
D12*
X88569800Y-66278760D03*
D11*
X103809800Y-104378760D03*
X88569800Y-68818760D03*
X103809800Y-101838760D03*
X88569800Y-71358760D03*
X103809800Y-99298760D03*
X88569800Y-73898760D03*
X103809800Y-96758760D03*
X88569800Y-76438760D03*
X103809800Y-94218760D03*
X88569800Y-78978760D03*
X103809800Y-91678760D03*
X88569800Y-81518760D03*
X103809800Y-89138760D03*
X88569800Y-84058760D03*
X103809800Y-86598760D03*
X88569800Y-86598760D03*
X103809800Y-84058760D03*
X88569800Y-89138760D03*
X103809800Y-81518760D03*
X88569800Y-91678760D03*
X103809800Y-78978760D03*
X88569800Y-94218760D03*
X103809800Y-76438760D03*
X88569800Y-96758760D03*
X103809800Y-73898760D03*
X88569800Y-99298760D03*
X103809800Y-71358760D03*
X88569800Y-101838760D03*
X103809800Y-68818760D03*
X88569800Y-104378760D03*
X103809800Y-66278760D03*
D13*
X67945000Y-52705000D03*
X69215000Y-52705000D03*
D14*
X66675000Y-52705000D03*
D15*
X78740000Y-110490000D03*
X78740000Y-115370000D03*
D16*
X115067080Y-37256720D03*
D17*
X117607080Y-37256720D03*
X120147080Y-37256720D03*
D18*
X99700000Y-37400000D03*
D17*
X97160000Y-37400000D03*
X94620000Y-37400000D03*
X92080000Y-37400000D03*
X89540000Y-37400000D03*
X87000000Y-37400000D03*
X84460000Y-37400000D03*
X81920000Y-37400000D03*
X79380000Y-37400000D03*
X48676560Y-49047400D03*
X48676560Y-46507400D03*
D19*
X48676560Y-43967400D03*
D17*
X60960000Y-121920000D03*
D18*
X63500000Y-121920000D03*
X55880000Y-121920000D03*
D17*
X53340000Y-121920000D03*
D19*
X126507240Y-48351440D03*
D17*
X126507240Y-50891440D03*
X126507240Y-53431440D03*
D18*
X55382160Y-37840920D03*
D17*
X52842160Y-37840920D03*
X50302160Y-37840920D03*
X47762160Y-37840920D03*
X45222160Y-37840920D03*
D20*
X48580040Y-94960440D03*
D17*
X48580040Y-92420440D03*
X48580040Y-89880440D03*
X48580040Y-87340440D03*
X48580040Y-84800440D03*
X48580040Y-82260440D03*
D10*
X114619400Y-41163240D03*
X117119400Y-41163240D03*
X81915000Y-77470000D03*
X79415000Y-77470000D03*
X117892200Y-67431920D03*
X115392200Y-67431920D03*
X60325000Y-52705000D03*
X62825000Y-52705000D03*
X51550000Y-111600000D03*
X51550000Y-114100000D03*
X85090000Y-115570000D03*
X87590000Y-115570000D03*
X87590000Y-110490000D03*
X85090000Y-110490000D03*
X105500000Y-42350000D03*
X103000000Y-42350000D03*
D12*
X99800000Y-45500000D03*
D11*
X107420000Y-60740000D03*
X99800000Y-48040000D03*
X107420000Y-58200000D03*
X99800000Y-50580000D03*
X107420000Y-55660000D03*
X99800000Y-53120000D03*
X107420000Y-53120000D03*
X99800000Y-55660000D03*
X107420000Y-50580000D03*
X99800000Y-58200000D03*
X107420000Y-48040000D03*
X99800000Y-60740000D03*
X107420000Y-45500000D03*
M02*
