M48
; DRILL file {KiCad 6.0.11-3.fc36} date Sun 05 Mar 2023 15:35:55 GMT
; FORMAT={-:-/ absolute / metric / decimal}
; #@! TF.CreationDate,2023-03-05T15:35:55+00:00
; #@! TF.GenerationSoftware,Kicad,Pcbnew,6.0.11-3.fc36
; #@! TF.FileFunction,Plated,1,2,PTH
FMAT,2
METRIC
; #@! TA.AperFunction,Plated,PTH,ViaDrill
T1C0.400
; #@! TA.AperFunction,Plated,PTH,ViaDrill
T2C0.500
; #@! TA.AperFunction,Plated,PTH,ComponentDrill
T3C0.600
; #@! TA.AperFunction,Plated,PTH,ComponentDrill
T4C0.800
; #@! TA.AperFunction,Plated,PTH,ComponentDrill
T5C1.000
%
G90
G05
T1
X50.876Y-40.808
X57.55Y-69.8
X58.35Y-80.0
X59.8Y-78.5
X61.569Y-76.331
X63.4Y-67.25
X64.6Y-55.4
X65.5Y-92.85
X66.6Y-70.9
X71.1Y-56.4
X72.25Y-114.25
X74.05Y-117.7
X74.503Y-109.322
X77.05Y-64.05
X77.794Y-105.506
X79.45Y-71.5
X82.45Y-106.25
X84.05Y-66.35
X85.771Y-120.34
X85.847Y-121.3
X85.994Y-89.017
X85.994Y-119.162
X86.2Y-75.2
X86.208Y-77.821
X86.345Y-83.155
X86.462Y-86.126
X86.797Y-90.83
X87.013Y-80.394
X88.4Y-53.4
X90.206Y-96.84
X90.861Y-98.979
X92.65Y-95.9
X94.8Y-50.3
X95.4Y-82.95
X96.1Y-78.05
X96.8Y-70.6
X98.15Y-104.15
X100.265Y-39.745
X101.0Y-91.65
X101.05Y-76.9
X101.219Y-74.127
X106.0Y-73.6
X106.85Y-70.75
X115.95Y-73.1
X119.5Y-74.35
X120.727Y-65.173
X122.55Y-75.65
X127.386Y-76.627
T2
X62.581Y-80.93
X86.4Y-113.55
X100.511Y-40.889
T3
X66.675Y-52.705
X67.945Y-52.705
X69.215Y-52.705
T4
X47.64Y-56.007
X47.64Y-66.167
X48.6Y-106.9
X48.6Y-117.06
X51.55Y-111.6
X51.55Y-114.1
X54.5Y-45.0
X54.5Y-55.16
X54.61Y-58.42
X54.61Y-60.96
X54.61Y-63.5
X54.61Y-66.04
X54.61Y-68.58
X54.61Y-71.12
X54.61Y-73.66
X54.61Y-76.2
X54.61Y-78.74
X54.61Y-81.28
X54.61Y-83.82
X54.61Y-86.36
X54.61Y-88.9
X54.61Y-91.44
X54.61Y-93.98
X54.61Y-96.52
X54.61Y-99.06
X54.61Y-101.6
X54.61Y-104.14
X54.61Y-106.68
X54.61Y-109.22
X54.61Y-111.76
X54.61Y-114.3
X54.61Y-116.84
X60.325Y-40.64
X60.325Y-52.705
X62.325Y-40.64
X62.825Y-52.705
X65.172Y-48.158
X65.457Y-37.368
X65.457Y-40.67
X69.85Y-58.42
X69.85Y-60.96
X69.85Y-63.5
X69.85Y-66.04
X69.85Y-68.58
X69.85Y-71.12
X69.85Y-73.66
X69.85Y-76.2
X69.85Y-78.74
X69.85Y-81.28
X69.85Y-83.82
X69.85Y-86.36
X69.85Y-88.9
X69.85Y-91.44
X69.85Y-93.98
X69.85Y-96.52
X69.85Y-99.06
X69.85Y-101.6
X69.85Y-104.14
X69.85Y-106.68
X69.85Y-109.22
X69.85Y-111.76
X69.85Y-114.3
X69.85Y-116.84
X74.432Y-81.346
X74.432Y-83.886
X74.432Y-86.426
X74.432Y-88.966
X74.432Y-91.506
X74.432Y-94.046
X74.432Y-96.586
X74.432Y-99.126
X74.432Y-101.666
X74.432Y-104.206
X75.332Y-48.158
X75.439Y-44.653
X75.617Y-37.368
X75.617Y-40.67
X78.74Y-110.49
X78.74Y-115.37
X79.415Y-77.47
X81.915Y-77.47
X82.052Y-81.346
X82.052Y-83.886
X82.052Y-86.426
X82.052Y-88.966
X82.052Y-91.506
X82.052Y-94.046
X82.052Y-96.586
X82.052Y-99.126
X82.052Y-101.666
X82.052Y-104.206
X85.09Y-110.49
X85.09Y-115.57
X85.599Y-44.653
X87.59Y-110.49
X87.59Y-115.57
X88.57Y-66.279
X88.57Y-68.819
X88.57Y-71.359
X88.57Y-73.899
X88.57Y-76.439
X88.57Y-78.979
X88.57Y-81.519
X88.57Y-84.059
X88.57Y-86.599
X88.57Y-89.139
X88.57Y-91.679
X88.57Y-94.219
X88.57Y-96.759
X88.57Y-99.299
X88.57Y-101.839
X88.57Y-104.379
X91.2Y-107.24
X91.2Y-117.4
X94.69Y-109.9
X94.69Y-116.75
X94.818Y-61.707
X97.318Y-61.707
X99.8Y-45.5
X99.8Y-48.04
X99.8Y-50.58
X99.8Y-53.12
X99.8Y-55.66
X99.8Y-58.2
X99.8Y-60.74
X103.0Y-42.35
X103.81Y-66.279
X103.81Y-68.819
X103.81Y-71.359
X103.81Y-73.899
X103.81Y-76.439
X103.81Y-78.979
X103.81Y-81.519
X103.81Y-84.059
X103.81Y-86.599
X103.81Y-89.139
X103.81Y-91.679
X103.81Y-94.219
X103.81Y-96.759
X103.81Y-99.299
X103.81Y-101.839
X103.81Y-104.379
X104.85Y-109.9
X104.85Y-116.75
X105.5Y-42.35
X107.42Y-45.5
X107.42Y-48.04
X107.42Y-50.58
X107.42Y-53.12
X107.42Y-55.66
X107.42Y-58.2
X107.42Y-60.74
X109.621Y-71.232
X109.621Y-73.772
X109.621Y-76.312
X109.621Y-78.852
X109.621Y-81.392
X109.621Y-83.932
X109.621Y-86.472
X109.621Y-89.012
X109.621Y-91.552
X109.621Y-94.092
X109.621Y-96.632
X109.621Y-99.172
X109.621Y-101.712
X109.621Y-104.252
X112.1Y-44.912
X112.1Y-47.452
X112.1Y-49.992
X112.1Y-52.532
X112.1Y-55.072
X112.1Y-57.612
X112.1Y-60.152
X112.1Y-62.692
X114.619Y-41.163
X115.392Y-67.432
X117.119Y-41.163
X117.892Y-67.432
X119.72Y-44.912
X119.72Y-47.452
X119.72Y-49.992
X119.72Y-52.532
X119.72Y-55.072
X119.72Y-57.612
X119.72Y-60.152
X119.72Y-62.692
X124.861Y-71.232
X124.861Y-73.772
X124.861Y-76.312
X124.861Y-78.852
X124.861Y-81.392
X124.861Y-83.932
X124.861Y-86.472
X124.861Y-89.012
X124.861Y-91.552
X124.861Y-94.092
X124.861Y-96.632
X124.861Y-99.172
X124.861Y-101.712
X124.861Y-104.252
T5
X45.222Y-37.841
X47.762Y-37.841
X48.58Y-82.26
X48.58Y-84.8
X48.58Y-87.34
X48.58Y-89.88
X48.58Y-92.42
X48.58Y-94.96
X48.677Y-43.967
X48.677Y-46.507
X48.677Y-49.047
X50.302Y-37.841
X52.842Y-37.841
X53.34Y-121.92
X55.382Y-37.841
X55.88Y-121.92
X60.96Y-121.92
X63.5Y-121.92
X79.38Y-37.4
X81.92Y-37.4
X84.46Y-37.4
X87.0Y-37.4
X89.54Y-37.4
X92.08Y-37.4
X94.62Y-37.4
X97.16Y-37.4
X99.7Y-37.4
X115.067Y-37.257
X117.607Y-37.257
X120.147Y-37.257
X126.507Y-48.351
X126.507Y-50.891
X126.507Y-53.431
T0
M30
