G04 #@! TF.GenerationSoftware,KiCad,Pcbnew,6.0.11-3.fc36*
G04 #@! TF.CreationDate,2023-03-05T15:34:22+00:00*
G04 #@! TF.ProjectId,68hc11,36386863-3131-42e6-9b69-6361645f7063,rev?*
G04 #@! TF.SameCoordinates,Original*
G04 #@! TF.FileFunction,Legend,Top*
G04 #@! TF.FilePolarity,Positive*
%FSLAX46Y46*%
G04 Gerber Fmt 4.6, Leading zero omitted, Abs format (unit mm)*
G04 Created by KiCad (PCBNEW 6.0.11-3.fc36) date 2023-03-05 15:34:22*
%MOMM*%
%LPD*%
G01*
G04 APERTURE LIST*
G04 Aperture macros list*
%AMRoundRect*
0 Rectangle with rounded corners*
0 $1 Rounding radius*
0 $2 $3 $4 $5 $6 $7 $8 $9 X,Y pos of 4 corners*
0 Add a 4 corners polygon primitive as box body*
4,1,4,$2,$3,$4,$5,$6,$7,$8,$9,$2,$3,0*
0 Add four circle primitives for the rounded corners*
1,1,$1+$1,$2,$3*
1,1,$1+$1,$4,$5*
1,1,$1+$1,$6,$7*
1,1,$1+$1,$8,$9*
0 Add four rect primitives between the rounded corners*
20,1,$1+$1,$2,$3,$4,$5,0*
20,1,$1+$1,$4,$5,$6,$7,0*
20,1,$1+$1,$6,$7,$8,$9,0*
20,1,$1+$1,$8,$9,$2,$3,0*%
G04 Aperture macros list end*
%ADD10C,0.300000*%
%ADD11C,0.150000*%
%ADD12C,0.120000*%
%ADD13C,2.000000*%
%ADD14O,2.000000X2.000000*%
%ADD15RoundRect,0.200000X-0.800000X-0.800000X0.800000X-0.800000X0.800000X0.800000X-0.800000X0.800000X0*%
%ADD16O,1.300000X1.900000*%
%ADD17RoundRect,0.200000X0.450000X0.750000X-0.450000X0.750000X-0.450000X-0.750000X0.450000X-0.750000X0*%
%ADD18C,1.900000*%
%ADD19RoundRect,0.200000X0.850000X-0.850000X0.850000X0.850000X-0.850000X0.850000X-0.850000X-0.850000X0*%
%ADD20O,2.100000X2.100000*%
%ADD21RoundRect,0.200000X-0.850000X0.850000X-0.850000X-0.850000X0.850000X-0.850000X0.850000X0.850000X0*%
%ADD22RoundRect,0.200000X-0.850000X-0.850000X0.850000X-0.850000X0.850000X0.850000X-0.850000X0.850000X0*%
%ADD23RoundRect,0.200000X0.850000X0.850000X-0.850000X0.850000X-0.850000X-0.850000X0.850000X-0.850000X0*%
G04 APERTURE END LIST*
D10*
X109128571Y-110013571D02*
X108842857Y-110013571D01*
X108700000Y-110085000D01*
X108628571Y-110156428D01*
X108485714Y-110370714D01*
X108414285Y-110656428D01*
X108414285Y-111227857D01*
X108485714Y-111370714D01*
X108557142Y-111442142D01*
X108700000Y-111513571D01*
X108985714Y-111513571D01*
X109128571Y-111442142D01*
X109200000Y-111370714D01*
X109271428Y-111227857D01*
X109271428Y-110870714D01*
X109200000Y-110727857D01*
X109128571Y-110656428D01*
X108985714Y-110585000D01*
X108700000Y-110585000D01*
X108557142Y-110656428D01*
X108485714Y-110727857D01*
X108414285Y-110870714D01*
X110128571Y-110656428D02*
X109985714Y-110585000D01*
X109914285Y-110513571D01*
X109842857Y-110370714D01*
X109842857Y-110299285D01*
X109914285Y-110156428D01*
X109985714Y-110085000D01*
X110128571Y-110013571D01*
X110414285Y-110013571D01*
X110557142Y-110085000D01*
X110628571Y-110156428D01*
X110700000Y-110299285D01*
X110700000Y-110370714D01*
X110628571Y-110513571D01*
X110557142Y-110585000D01*
X110414285Y-110656428D01*
X110128571Y-110656428D01*
X109985714Y-110727857D01*
X109914285Y-110799285D01*
X109842857Y-110942142D01*
X109842857Y-111227857D01*
X109914285Y-111370714D01*
X109985714Y-111442142D01*
X110128571Y-111513571D01*
X110414285Y-111513571D01*
X110557142Y-111442142D01*
X110628571Y-111370714D01*
X110700000Y-111227857D01*
X110700000Y-110942142D01*
X110628571Y-110799285D01*
X110557142Y-110727857D01*
X110414285Y-110656428D01*
X111342857Y-111513571D02*
X111342857Y-110013571D01*
X111342857Y-110727857D02*
X112200000Y-110727857D01*
X112200000Y-111513571D02*
X112200000Y-110013571D01*
X113771428Y-111370714D02*
X113700000Y-111442142D01*
X113485714Y-111513571D01*
X113342857Y-111513571D01*
X113128571Y-111442142D01*
X112985714Y-111299285D01*
X112914285Y-111156428D01*
X112842857Y-110870714D01*
X112842857Y-110656428D01*
X112914285Y-110370714D01*
X112985714Y-110227857D01*
X113128571Y-110085000D01*
X113342857Y-110013571D01*
X113485714Y-110013571D01*
X113700000Y-110085000D01*
X113771428Y-110156428D01*
X115200000Y-111513571D02*
X114342857Y-111513571D01*
X114771428Y-111513571D02*
X114771428Y-110013571D01*
X114628571Y-110227857D01*
X114485714Y-110370714D01*
X114342857Y-110442142D01*
X116628571Y-111513571D02*
X115771428Y-111513571D01*
X116200000Y-111513571D02*
X116200000Y-110013571D01*
X116057142Y-110227857D01*
X115914285Y-110370714D01*
X115771428Y-110442142D01*
X118271428Y-110513571D02*
X118628571Y-111513571D01*
X118985714Y-110513571D01*
X119842857Y-110013571D02*
X119985714Y-110013571D01*
X120128571Y-110085000D01*
X120200000Y-110156428D01*
X120271428Y-110299285D01*
X120342857Y-110585000D01*
X120342857Y-110942142D01*
X120271428Y-111227857D01*
X120200000Y-111370714D01*
X120128571Y-111442142D01*
X119985714Y-111513571D01*
X119842857Y-111513571D01*
X119700000Y-111442142D01*
X119628571Y-111370714D01*
X119557142Y-111227857D01*
X119485714Y-110942142D01*
X119485714Y-110585000D01*
X119557142Y-110299285D01*
X119628571Y-110156428D01*
X119700000Y-110085000D01*
X119842857Y-110013571D01*
X120985714Y-111370714D02*
X121057142Y-111442142D01*
X120985714Y-111513571D01*
X120914285Y-111442142D01*
X120985714Y-111370714D01*
X120985714Y-111513571D01*
X121557142Y-110013571D02*
X122485714Y-110013571D01*
X121985714Y-110585000D01*
X122200000Y-110585000D01*
X122342857Y-110656428D01*
X122414285Y-110727857D01*
X122485714Y-110870714D01*
X122485714Y-111227857D01*
X122414285Y-111370714D01*
X122342857Y-111442142D01*
X122200000Y-111513571D01*
X121771428Y-111513571D01*
X121628571Y-111442142D01*
X121557142Y-111370714D01*
X102807142Y-114500000D02*
X102735714Y-114428571D01*
X102592857Y-114214285D01*
X102521428Y-114071428D01*
X102450000Y-113857142D01*
X102378571Y-113500000D01*
X102378571Y-113214285D01*
X102450000Y-112857142D01*
X102521428Y-112642857D01*
X102592857Y-112500000D01*
X102735714Y-112285714D01*
X102807142Y-112214285D01*
X104235714Y-113785714D02*
X104164285Y-113857142D01*
X103950000Y-113928571D01*
X103807142Y-113928571D01*
X103592857Y-113857142D01*
X103450000Y-113714285D01*
X103378571Y-113571428D01*
X103307142Y-113285714D01*
X103307142Y-113071428D01*
X103378571Y-112785714D01*
X103450000Y-112642857D01*
X103592857Y-112500000D01*
X103807142Y-112428571D01*
X103950000Y-112428571D01*
X104164285Y-112500000D01*
X104235714Y-112571428D01*
X104735714Y-114500000D02*
X104807142Y-114428571D01*
X104950000Y-114214285D01*
X105021428Y-114071428D01*
X105092857Y-113857142D01*
X105164285Y-113500000D01*
X105164285Y-113214285D01*
X105092857Y-112857142D01*
X105021428Y-112642857D01*
X104950000Y-112500000D01*
X104807142Y-112285714D01*
X104735714Y-112214285D01*
X106950000Y-112571428D02*
X107021428Y-112500000D01*
X107164285Y-112428571D01*
X107521428Y-112428571D01*
X107664285Y-112500000D01*
X107735714Y-112571428D01*
X107807142Y-112714285D01*
X107807142Y-112857142D01*
X107735714Y-113071428D01*
X106878571Y-113928571D01*
X107807142Y-113928571D01*
X108735714Y-112428571D02*
X108878571Y-112428571D01*
X109021428Y-112500000D01*
X109092857Y-112571428D01*
X109164285Y-112714285D01*
X109235714Y-113000000D01*
X109235714Y-113357142D01*
X109164285Y-113642857D01*
X109092857Y-113785714D01*
X109021428Y-113857142D01*
X108878571Y-113928571D01*
X108735714Y-113928571D01*
X108592857Y-113857142D01*
X108521428Y-113785714D01*
X108450000Y-113642857D01*
X108378571Y-113357142D01*
X108378571Y-113000000D01*
X108450000Y-112714285D01*
X108521428Y-112571428D01*
X108592857Y-112500000D01*
X108735714Y-112428571D01*
X110664285Y-113928571D02*
X109807142Y-113928571D01*
X110235714Y-113928571D02*
X110235714Y-112428571D01*
X110092857Y-112642857D01*
X109950000Y-112785714D01*
X109807142Y-112857142D01*
X111378571Y-113928571D02*
X111664285Y-113928571D01*
X111807142Y-113857142D01*
X111878571Y-113785714D01*
X112021428Y-113571428D01*
X112092857Y-113285714D01*
X112092857Y-112714285D01*
X112021428Y-112571428D01*
X111950000Y-112500000D01*
X111807142Y-112428571D01*
X111521428Y-112428571D01*
X111378571Y-112500000D01*
X111307142Y-112571428D01*
X111235714Y-112714285D01*
X111235714Y-113071428D01*
X111307142Y-113214285D01*
X111378571Y-113285714D01*
X111521428Y-113357142D01*
X111807142Y-113357142D01*
X111950000Y-113285714D01*
X112021428Y-113214285D01*
X112092857Y-113071428D01*
X113878571Y-113142857D02*
X114378571Y-113142857D01*
X114592857Y-113928571D02*
X113878571Y-113928571D01*
X113878571Y-112428571D01*
X114592857Y-112428571D01*
X115021428Y-112928571D02*
X115592857Y-112928571D01*
X115235714Y-112428571D02*
X115235714Y-113714285D01*
X115307142Y-113857142D01*
X115450000Y-113928571D01*
X115592857Y-113928571D01*
X116735714Y-113857142D02*
X116592857Y-113928571D01*
X116307142Y-113928571D01*
X116164285Y-113857142D01*
X116092857Y-113785714D01*
X116021428Y-113642857D01*
X116021428Y-113214285D01*
X116092857Y-113071428D01*
X116164285Y-113000000D01*
X116307142Y-112928571D01*
X116592857Y-112928571D01*
X116735714Y-113000000D01*
X117378571Y-113928571D02*
X117378571Y-112428571D01*
X118021428Y-113928571D02*
X118021428Y-113142857D01*
X117950000Y-113000000D01*
X117807142Y-112928571D01*
X117592857Y-112928571D01*
X117450000Y-113000000D01*
X117378571Y-113071428D01*
X119307142Y-113857142D02*
X119164285Y-113928571D01*
X118878571Y-113928571D01*
X118735714Y-113857142D01*
X118664285Y-113714285D01*
X118664285Y-113142857D01*
X118735714Y-113000000D01*
X118878571Y-112928571D01*
X119164285Y-112928571D01*
X119307142Y-113000000D01*
X119378571Y-113142857D01*
X119378571Y-113285714D01*
X118664285Y-113428571D01*
X120664285Y-113928571D02*
X120664285Y-112428571D01*
X120664285Y-113857142D02*
X120521428Y-113928571D01*
X120235714Y-113928571D01*
X120092857Y-113857142D01*
X120021428Y-113785714D01*
X119950000Y-113642857D01*
X119950000Y-113214285D01*
X120021428Y-113071428D01*
X120092857Y-113000000D01*
X120235714Y-112928571D01*
X120521428Y-112928571D01*
X120664285Y-113000000D01*
X122521428Y-113928571D02*
X122521428Y-112428571D01*
X123092857Y-112428571D01*
X123235714Y-112500000D01*
X123307142Y-112571428D01*
X123378571Y-112714285D01*
X123378571Y-112928571D01*
X123307142Y-113071428D01*
X123235714Y-113142857D01*
X123092857Y-113214285D01*
X122521428Y-113214285D01*
X124021428Y-113928571D02*
X124021428Y-112928571D01*
X124021428Y-112428571D02*
X123950000Y-112500000D01*
X124021428Y-112571428D01*
X124092857Y-112500000D01*
X124021428Y-112428571D01*
X124021428Y-112571428D01*
X124592857Y-113928571D02*
X125378571Y-112928571D01*
X124592857Y-112928571D02*
X125378571Y-113928571D01*
X126521428Y-113857142D02*
X126378571Y-113928571D01*
X126092857Y-113928571D01*
X125950000Y-113857142D01*
X125878571Y-113714285D01*
X125878571Y-113142857D01*
X125950000Y-113000000D01*
X126092857Y-112928571D01*
X126378571Y-112928571D01*
X126521428Y-113000000D01*
X126592857Y-113142857D01*
X126592857Y-113285714D01*
X125878571Y-113428571D01*
X127450000Y-113928571D02*
X127307142Y-113857142D01*
X127235714Y-113714285D01*
X127235714Y-112428571D01*
X127950000Y-113857142D02*
X128092857Y-113928571D01*
X128378571Y-113928571D01*
X128521428Y-113857142D01*
X128592857Y-113714285D01*
X128592857Y-113642857D01*
X128521428Y-113500000D01*
X128378571Y-113428571D01*
X128164285Y-113428571D01*
X128021428Y-113357142D01*
X127950000Y-113214285D01*
X127950000Y-113142857D01*
X128021428Y-113000000D01*
X128164285Y-112928571D01*
X128378571Y-112928571D01*
X128521428Y-113000000D01*
X112700000Y-116200714D02*
X112628571Y-116272142D01*
X112414285Y-116343571D01*
X112271428Y-116343571D01*
X112057142Y-116272142D01*
X111914285Y-116129285D01*
X111842857Y-115986428D01*
X111771428Y-115700714D01*
X111771428Y-115486428D01*
X111842857Y-115200714D01*
X111914285Y-115057857D01*
X112057142Y-114915000D01*
X112271428Y-114843571D01*
X112414285Y-114843571D01*
X112628571Y-114915000D01*
X112700000Y-114986428D01*
X114200000Y-116200714D02*
X114128571Y-116272142D01*
X113914285Y-116343571D01*
X113771428Y-116343571D01*
X113557142Y-116272142D01*
X113414285Y-116129285D01*
X113342857Y-115986428D01*
X113271428Y-115700714D01*
X113271428Y-115486428D01*
X113342857Y-115200714D01*
X113414285Y-115057857D01*
X113557142Y-114915000D01*
X113771428Y-114843571D01*
X113914285Y-114843571D01*
X114128571Y-114915000D01*
X114200000Y-114986428D01*
X114842857Y-115772142D02*
X115985714Y-115772142D01*
X116700000Y-116343571D02*
X116700000Y-114843571D01*
X117557142Y-116343571D01*
X117557142Y-114843571D01*
X119128571Y-116200714D02*
X119057142Y-116272142D01*
X118842857Y-116343571D01*
X118700000Y-116343571D01*
X118485714Y-116272142D01*
X118342857Y-116129285D01*
X118271428Y-115986428D01*
X118200000Y-115700714D01*
X118200000Y-115486428D01*
X118271428Y-115200714D01*
X118342857Y-115057857D01*
X118485714Y-114915000D01*
X118700000Y-114843571D01*
X118842857Y-114843571D01*
X119057142Y-114915000D01*
X119128571Y-114986428D01*
D11*
X99648093Y-110544740D02*
X99314760Y-110068550D01*
X99076664Y-110544740D02*
X99076664Y-109544740D01*
X99457617Y-109544740D01*
X99552855Y-109592360D01*
X99600474Y-109639979D01*
X99648093Y-109735217D01*
X99648093Y-109878074D01*
X99600474Y-109973312D01*
X99552855Y-110020931D01*
X99457617Y-110068550D01*
X99076664Y-110068550D01*
X100124283Y-110544740D02*
X100314760Y-110544740D01*
X100409998Y-110497121D01*
X100457617Y-110449502D01*
X100552855Y-110306645D01*
X100600474Y-110116169D01*
X100600474Y-109735217D01*
X100552855Y-109639979D01*
X100505236Y-109592360D01*
X100409998Y-109544740D01*
X100219521Y-109544740D01*
X100124283Y-109592360D01*
X100076664Y-109639979D01*
X100029045Y-109735217D01*
X100029045Y-109973312D01*
X100076664Y-110068550D01*
X100124283Y-110116169D01*
X100219521Y-110163788D01*
X100409998Y-110163788D01*
X100505236Y-110116169D01*
X100552855Y-110068550D01*
X100600474Y-109973312D01*
X115148455Y-42034660D02*
X115148455Y-42844184D01*
X115196074Y-42939422D01*
X115243693Y-42987041D01*
X115338931Y-43034660D01*
X115529407Y-43034660D01*
X115624645Y-42987041D01*
X115672264Y-42939422D01*
X115719883Y-42844184D01*
X115719883Y-42034660D01*
X116624645Y-42367994D02*
X116624645Y-43034660D01*
X116386550Y-41987041D02*
X116148455Y-42701327D01*
X116767502Y-42701327D01*
X77480255Y-78893420D02*
X77480255Y-79702944D01*
X77527874Y-79798182D01*
X77575493Y-79845801D01*
X77670731Y-79893420D01*
X77861207Y-79893420D01*
X77956445Y-79845801D01*
X78004064Y-79798182D01*
X78051683Y-79702944D01*
X78051683Y-78893420D01*
X78432636Y-78893420D02*
X79051683Y-78893420D01*
X78718350Y-79274373D01*
X78861207Y-79274373D01*
X78956445Y-79321992D01*
X79004064Y-79369611D01*
X79051683Y-79464849D01*
X79051683Y-79702944D01*
X79004064Y-79798182D01*
X78956445Y-79845801D01*
X78861207Y-79893420D01*
X78575493Y-79893420D01*
X78480255Y-79845801D01*
X78432636Y-79798182D01*
X61427455Y-55027580D02*
X61427455Y-55837104D01*
X61475074Y-55932342D01*
X61522693Y-55979961D01*
X61617931Y-56027580D01*
X61808407Y-56027580D01*
X61903645Y-55979961D01*
X61951264Y-55932342D01*
X61998883Y-55837104D01*
X61998883Y-55027580D01*
X62998883Y-56027580D02*
X62427455Y-56027580D01*
X62713169Y-56027580D02*
X62713169Y-55027580D01*
X62617931Y-55170438D01*
X62522693Y-55265676D01*
X62427455Y-55313295D01*
X95794533Y-59935382D02*
X95746914Y-59983001D01*
X95604057Y-60030620D01*
X95508819Y-60030620D01*
X95365961Y-59983001D01*
X95270723Y-59887763D01*
X95223104Y-59792525D01*
X95175485Y-59602049D01*
X95175485Y-59459192D01*
X95223104Y-59268716D01*
X95270723Y-59173478D01*
X95365961Y-59078240D01*
X95508819Y-59030620D01*
X95604057Y-59030620D01*
X95746914Y-59078240D01*
X95794533Y-59125859D01*
X96270723Y-60030620D02*
X96461200Y-60030620D01*
X96556438Y-59983001D01*
X96604057Y-59935382D01*
X96699295Y-59792525D01*
X96746914Y-59602049D01*
X96746914Y-59221097D01*
X96699295Y-59125859D01*
X96651676Y-59078240D01*
X96556438Y-59030620D01*
X96365961Y-59030620D01*
X96270723Y-59078240D01*
X96223104Y-59125859D01*
X96175485Y-59221097D01*
X96175485Y-59459192D01*
X96223104Y-59554430D01*
X96270723Y-59602049D01*
X96365961Y-59649668D01*
X96556438Y-59649668D01*
X96651676Y-59602049D01*
X96699295Y-59554430D01*
X96746914Y-59459192D01*
X54982860Y-49967266D02*
X54506670Y-50300600D01*
X54982860Y-50538695D02*
X53982860Y-50538695D01*
X53982860Y-50157742D01*
X54030480Y-50062504D01*
X54078099Y-50014885D01*
X54173337Y-49967266D01*
X54316194Y-49967266D01*
X54411432Y-50014885D01*
X54459051Y-50062504D01*
X54506670Y-50157742D01*
X54506670Y-50538695D01*
X54316194Y-49110123D02*
X54982860Y-49110123D01*
X53935241Y-49348219D02*
X54649527Y-49586314D01*
X54649527Y-48967266D01*
X116408295Y-68636900D02*
X116408295Y-69446424D01*
X116455914Y-69541662D01*
X116503533Y-69589281D01*
X116598771Y-69636900D01*
X116789247Y-69636900D01*
X116884485Y-69589281D01*
X116932104Y-69541662D01*
X116979723Y-69446424D01*
X116979723Y-68636900D01*
X117932104Y-68636900D02*
X117455914Y-68636900D01*
X117408295Y-69113091D01*
X117455914Y-69065472D01*
X117551152Y-69017853D01*
X117789247Y-69017853D01*
X117884485Y-69065472D01*
X117932104Y-69113091D01*
X117979723Y-69208329D01*
X117979723Y-69446424D01*
X117932104Y-69541662D01*
X117884485Y-69589281D01*
X117789247Y-69636900D01*
X117551152Y-69636900D01*
X117455914Y-69589281D01*
X117408295Y-69541662D01*
X61983333Y-44707142D02*
X61935714Y-44754761D01*
X61792857Y-44802380D01*
X61697619Y-44802380D01*
X61554761Y-44754761D01*
X61459523Y-44659523D01*
X61411904Y-44564285D01*
X61364285Y-44373809D01*
X61364285Y-44230952D01*
X61411904Y-44040476D01*
X61459523Y-43945238D01*
X61554761Y-43850000D01*
X61697619Y-43802380D01*
X61792857Y-43802380D01*
X61935714Y-43850000D01*
X61983333Y-43897619D01*
X62935714Y-44802380D02*
X62364285Y-44802380D01*
X62650000Y-44802380D02*
X62650000Y-43802380D01*
X62554761Y-43945238D01*
X62459523Y-44040476D01*
X62364285Y-44088095D01*
X99378333Y-117142380D02*
X99045000Y-116666190D01*
X98806904Y-117142380D02*
X98806904Y-116142380D01*
X99187857Y-116142380D01*
X99283095Y-116190000D01*
X99330714Y-116237619D01*
X99378333Y-116332857D01*
X99378333Y-116475714D01*
X99330714Y-116570952D01*
X99283095Y-116618571D01*
X99187857Y-116666190D01*
X98806904Y-116666190D01*
X100330714Y-117142380D02*
X99759285Y-117142380D01*
X100045000Y-117142380D02*
X100045000Y-116142380D01*
X99949761Y-116285238D01*
X99854523Y-116380476D01*
X99759285Y-116428095D01*
X48568333Y-112372380D02*
X48235000Y-111896190D01*
X47996904Y-112372380D02*
X47996904Y-111372380D01*
X48377857Y-111372380D01*
X48473095Y-111420000D01*
X48520714Y-111467619D01*
X48568333Y-111562857D01*
X48568333Y-111705714D01*
X48520714Y-111800952D01*
X48473095Y-111848571D01*
X48377857Y-111896190D01*
X47996904Y-111896190D01*
X48949285Y-111467619D02*
X48996904Y-111420000D01*
X49092142Y-111372380D01*
X49330238Y-111372380D01*
X49425476Y-111420000D01*
X49473095Y-111467619D01*
X49520714Y-111562857D01*
X49520714Y-111658095D01*
X49473095Y-111800952D01*
X48901666Y-112372380D01*
X49520714Y-112372380D01*
X69831373Y-48635900D02*
X69498040Y-48159710D01*
X69259944Y-48635900D02*
X69259944Y-47635900D01*
X69640897Y-47635900D01*
X69736135Y-47683520D01*
X69783754Y-47731139D01*
X69831373Y-47826377D01*
X69831373Y-47969234D01*
X69783754Y-48064472D01*
X69736135Y-48112091D01*
X69640897Y-48159710D01*
X69259944Y-48159710D01*
X70164706Y-47635900D02*
X70783754Y-47635900D01*
X70450420Y-48016853D01*
X70593278Y-48016853D01*
X70688516Y-48064472D01*
X70736135Y-48112091D01*
X70783754Y-48207329D01*
X70783754Y-48445424D01*
X70736135Y-48540662D01*
X70688516Y-48588281D01*
X70593278Y-48635900D01*
X70307563Y-48635900D01*
X70212325Y-48588281D01*
X70164706Y-48540662D01*
X80418093Y-45196740D02*
X80084760Y-44720550D01*
X79846664Y-45196740D02*
X79846664Y-44196740D01*
X80227617Y-44196740D01*
X80322855Y-44244360D01*
X80370474Y-44291979D01*
X80418093Y-44387217D01*
X80418093Y-44530074D01*
X80370474Y-44625312D01*
X80322855Y-44672931D01*
X80227617Y-44720550D01*
X79846664Y-44720550D01*
X81322855Y-44196740D02*
X80846664Y-44196740D01*
X80799045Y-44672931D01*
X80846664Y-44625312D01*
X80941902Y-44577693D01*
X81179998Y-44577693D01*
X81275236Y-44625312D01*
X81322855Y-44672931D01*
X81370474Y-44768169D01*
X81370474Y-45006264D01*
X81322855Y-45101502D01*
X81275236Y-45149121D01*
X81179998Y-45196740D01*
X80941902Y-45196740D01*
X80846664Y-45149121D01*
X80799045Y-45101502D01*
X70054893Y-37769780D02*
X69721560Y-37293590D01*
X69483464Y-37769780D02*
X69483464Y-36769780D01*
X69864417Y-36769780D01*
X69959655Y-36817400D01*
X70007274Y-36865019D01*
X70054893Y-36960257D01*
X70054893Y-37103114D01*
X70007274Y-37198352D01*
X69959655Y-37245971D01*
X69864417Y-37293590D01*
X69483464Y-37293590D01*
X70912036Y-36769780D02*
X70721560Y-36769780D01*
X70626321Y-36817400D01*
X70578702Y-36865019D01*
X70483464Y-37007876D01*
X70435845Y-37198352D01*
X70435845Y-37579304D01*
X70483464Y-37674542D01*
X70531083Y-37722161D01*
X70626321Y-37769780D01*
X70816798Y-37769780D01*
X70912036Y-37722161D01*
X70959655Y-37674542D01*
X71007274Y-37579304D01*
X71007274Y-37341209D01*
X70959655Y-37245971D01*
X70912036Y-37198352D01*
X70816798Y-37150733D01*
X70626321Y-37150733D01*
X70531083Y-37198352D01*
X70483464Y-37245971D01*
X70435845Y-37341209D01*
X70126013Y-41020980D02*
X69792680Y-40544790D01*
X69554584Y-41020980D02*
X69554584Y-40020980D01*
X69935537Y-40020980D01*
X70030775Y-40068600D01*
X70078394Y-40116219D01*
X70126013Y-40211457D01*
X70126013Y-40354314D01*
X70078394Y-40449552D01*
X70030775Y-40497171D01*
X69935537Y-40544790D01*
X69554584Y-40544790D01*
X70459346Y-40020980D02*
X71126013Y-40020980D01*
X70697441Y-41020980D01*
X47168773Y-61422540D02*
X46835440Y-60946350D01*
X46597344Y-61422540D02*
X46597344Y-60422540D01*
X46978297Y-60422540D01*
X47073535Y-60470160D01*
X47121154Y-60517779D01*
X47168773Y-60613017D01*
X47168773Y-60755874D01*
X47121154Y-60851112D01*
X47073535Y-60898731D01*
X46978297Y-60946350D01*
X46597344Y-60946350D01*
X47740201Y-60851112D02*
X47644963Y-60803493D01*
X47597344Y-60755874D01*
X47549725Y-60660636D01*
X47549725Y-60613017D01*
X47597344Y-60517779D01*
X47644963Y-60470160D01*
X47740201Y-60422540D01*
X47930678Y-60422540D01*
X48025916Y-60470160D01*
X48073535Y-60517779D01*
X48121154Y-60613017D01*
X48121154Y-60660636D01*
X48073535Y-60755874D01*
X48025916Y-60803493D01*
X47930678Y-60851112D01*
X47740201Y-60851112D01*
X47644963Y-60898731D01*
X47597344Y-60946350D01*
X47549725Y-61041588D01*
X47549725Y-61232064D01*
X47597344Y-61327302D01*
X47644963Y-61374921D01*
X47740201Y-61422540D01*
X47930678Y-61422540D01*
X48025916Y-61374921D01*
X48073535Y-61327302D01*
X48121154Y-61232064D01*
X48121154Y-61041588D01*
X48073535Y-60946350D01*
X48025916Y-60898731D01*
X47930678Y-60851112D01*
X90477142Y-112877380D02*
X90143809Y-112401190D01*
X89905714Y-112877380D02*
X89905714Y-111877380D01*
X90286666Y-111877380D01*
X90381904Y-111925000D01*
X90429523Y-111972619D01*
X90477142Y-112067857D01*
X90477142Y-112210714D01*
X90429523Y-112305952D01*
X90381904Y-112353571D01*
X90286666Y-112401190D01*
X89905714Y-112401190D01*
X91429523Y-112877380D02*
X90858095Y-112877380D01*
X91143809Y-112877380D02*
X91143809Y-111877380D01*
X91048571Y-112020238D01*
X90953333Y-112115476D01*
X90858095Y-112163095D01*
X92048571Y-111877380D02*
X92143809Y-111877380D01*
X92239047Y-111925000D01*
X92286666Y-111972619D01*
X92334285Y-112067857D01*
X92381904Y-112258333D01*
X92381904Y-112496428D01*
X92334285Y-112686904D01*
X92286666Y-112782142D01*
X92239047Y-112829761D01*
X92143809Y-112877380D01*
X92048571Y-112877380D01*
X91953333Y-112829761D01*
X91905714Y-112782142D01*
X91858095Y-112686904D01*
X91810476Y-112496428D01*
X91810476Y-112258333D01*
X91858095Y-112067857D01*
X91905714Y-111972619D01*
X91953333Y-111925000D01*
X92048571Y-111877380D01*
X95427895Y-63341140D02*
X95427895Y-64150664D01*
X95475514Y-64245902D01*
X95523133Y-64293521D01*
X95618371Y-64341140D01*
X95808847Y-64341140D01*
X95904085Y-64293521D01*
X95951704Y-64245902D01*
X95999323Y-64150664D01*
X95999323Y-63341140D01*
X96427895Y-63436379D02*
X96475514Y-63388760D01*
X96570752Y-63341140D01*
X96808847Y-63341140D01*
X96904085Y-63388760D01*
X96951704Y-63436379D01*
X96999323Y-63531617D01*
X96999323Y-63626855D01*
X96951704Y-63769712D01*
X96380276Y-64341140D01*
X96999323Y-64341140D01*
X71288095Y-51252380D02*
X71288095Y-52061904D01*
X71335714Y-52157142D01*
X71383333Y-52204761D01*
X71478571Y-52252380D01*
X71669047Y-52252380D01*
X71764285Y-52204761D01*
X71811904Y-52157142D01*
X71859523Y-52061904D01*
X71859523Y-51252380D01*
X72764285Y-51252380D02*
X72573809Y-51252380D01*
X72478571Y-51300000D01*
X72430952Y-51347619D01*
X72335714Y-51490476D01*
X72288095Y-51680952D01*
X72288095Y-52061904D01*
X72335714Y-52157142D01*
X72383333Y-52204761D01*
X72478571Y-52252380D01*
X72669047Y-52252380D01*
X72764285Y-52204761D01*
X72811904Y-52157142D01*
X72859523Y-52061904D01*
X72859523Y-51823809D01*
X72811904Y-51728571D01*
X72764285Y-51680952D01*
X72669047Y-51633333D01*
X72478571Y-51633333D01*
X72383333Y-51680952D01*
X72335714Y-51728571D01*
X72288095Y-51823809D01*
X82223809Y-112776190D02*
X82223809Y-113252380D01*
X81890476Y-112252380D02*
X82223809Y-112776190D01*
X82557142Y-112252380D01*
X83414285Y-113252380D02*
X82842857Y-113252380D01*
X83128571Y-113252380D02*
X83128571Y-112252380D01*
X83033333Y-112395238D01*
X82938095Y-112490476D01*
X82842857Y-112538095D01*
X122666666Y-37852380D02*
X122666666Y-38566666D01*
X122619047Y-38709523D01*
X122523809Y-38804761D01*
X122380952Y-38852380D01*
X122285714Y-38852380D01*
X123095238Y-37947619D02*
X123142857Y-37900000D01*
X123238095Y-37852380D01*
X123476190Y-37852380D01*
X123571428Y-37900000D01*
X123619047Y-37947619D01*
X123666666Y-38042857D01*
X123666666Y-38138095D01*
X123619047Y-38280952D01*
X123047619Y-38852380D01*
X123666666Y-38852380D01*
X99501786Y-39263860D02*
X99501786Y-39978146D01*
X99454167Y-40121003D01*
X99358929Y-40216241D01*
X99216072Y-40263860D01*
X99120834Y-40263860D01*
X99882739Y-39263860D02*
X100501786Y-39263860D01*
X100168453Y-39644813D01*
X100311310Y-39644813D01*
X100406548Y-39692432D01*
X100454167Y-39740051D01*
X100501786Y-39835289D01*
X100501786Y-40073384D01*
X100454167Y-40168622D01*
X100406548Y-40216241D01*
X100311310Y-40263860D01*
X100025596Y-40263860D01*
X99930358Y-40216241D01*
X99882739Y-40168622D01*
X48343226Y-41089780D02*
X48343226Y-41804066D01*
X48295607Y-41946923D01*
X48200369Y-42042161D01*
X48057512Y-42089780D01*
X47962274Y-42089780D01*
X49247988Y-41423114D02*
X49247988Y-42089780D01*
X49009893Y-41042161D02*
X48771798Y-41756447D01*
X49390845Y-41756447D01*
X61166666Y-118952380D02*
X61166666Y-119666666D01*
X61119047Y-119809523D01*
X61023809Y-119904761D01*
X60880952Y-119952380D01*
X60785714Y-119952380D01*
X61642857Y-119952380D02*
X61642857Y-118952380D01*
X62023809Y-118952380D01*
X62119047Y-119000000D01*
X62166666Y-119047619D01*
X62214285Y-119142857D01*
X62214285Y-119285714D01*
X62166666Y-119380952D01*
X62119047Y-119428571D01*
X62023809Y-119476190D01*
X61642857Y-119476190D01*
X63166666Y-119952380D02*
X62595238Y-119952380D01*
X62880952Y-119952380D02*
X62880952Y-118952380D01*
X62785714Y-119095238D01*
X62690476Y-119190476D01*
X62595238Y-119238095D01*
X53766666Y-118952380D02*
X53766666Y-119666666D01*
X53719047Y-119809523D01*
X53623809Y-119904761D01*
X53480952Y-119952380D01*
X53385714Y-119952380D01*
X54242857Y-119952380D02*
X54242857Y-118952380D01*
X54623809Y-118952380D01*
X54719047Y-119000000D01*
X54766666Y-119047619D01*
X54814285Y-119142857D01*
X54814285Y-119285714D01*
X54766666Y-119380952D01*
X54719047Y-119428571D01*
X54623809Y-119476190D01*
X54242857Y-119476190D01*
X55195238Y-119047619D02*
X55242857Y-119000000D01*
X55338095Y-118952380D01*
X55576190Y-118952380D01*
X55671428Y-119000000D01*
X55719047Y-119047619D01*
X55766666Y-119142857D01*
X55766666Y-119238095D01*
X55719047Y-119380952D01*
X55147619Y-119952380D01*
X55766666Y-119952380D01*
X125673906Y-45473820D02*
X125673906Y-46188106D01*
X125626287Y-46330963D01*
X125531049Y-46426201D01*
X125388192Y-46473820D01*
X125292954Y-46473820D01*
X126150097Y-46473820D02*
X126150097Y-45473820D01*
X126531049Y-45473820D01*
X126626287Y-45521440D01*
X126673906Y-45569059D01*
X126721525Y-45664297D01*
X126721525Y-45807154D01*
X126673906Y-45902392D01*
X126626287Y-45950011D01*
X126531049Y-45997630D01*
X126150097Y-45997630D01*
X127054859Y-45473820D02*
X127673906Y-45473820D01*
X127340573Y-45854773D01*
X127483430Y-45854773D01*
X127578668Y-45902392D01*
X127626287Y-45950011D01*
X127673906Y-46045249D01*
X127673906Y-46283344D01*
X127626287Y-46378582D01*
X127578668Y-46426201D01*
X127483430Y-46473820D01*
X127197716Y-46473820D01*
X127102478Y-46426201D01*
X127054859Y-46378582D01*
X55366666Y-40052380D02*
X55366666Y-40766666D01*
X55319047Y-40909523D01*
X55223809Y-41004761D01*
X55080952Y-41052380D01*
X54985714Y-41052380D01*
X56319047Y-40052380D02*
X55842857Y-40052380D01*
X55795238Y-40528571D01*
X55842857Y-40480952D01*
X55938095Y-40433333D01*
X56176190Y-40433333D01*
X56271428Y-40480952D01*
X56319047Y-40528571D01*
X56366666Y-40623809D01*
X56366666Y-40861904D01*
X56319047Y-40957142D01*
X56271428Y-41004761D01*
X56176190Y-41052380D01*
X55938095Y-41052380D01*
X55842857Y-41004761D01*
X55795238Y-40957142D01*
X45266666Y-97852380D02*
X45266666Y-98566666D01*
X45219047Y-98709523D01*
X45123809Y-98804761D01*
X44980952Y-98852380D01*
X44885714Y-98852380D01*
X46171428Y-97852380D02*
X45980952Y-97852380D01*
X45885714Y-97900000D01*
X45838095Y-97947619D01*
X45742857Y-98090476D01*
X45695238Y-98280952D01*
X45695238Y-98661904D01*
X45742857Y-98757142D01*
X45790476Y-98804761D01*
X45885714Y-98852380D01*
X46076190Y-98852380D01*
X46171428Y-98804761D01*
X46219047Y-98757142D01*
X46266666Y-98661904D01*
X46266666Y-98423809D01*
X46219047Y-98328571D01*
X46171428Y-98280952D01*
X46076190Y-98233333D01*
X45885714Y-98233333D01*
X45790476Y-98280952D01*
X45742857Y-98328571D01*
X45695238Y-98423809D01*
X119142213Y-41301942D02*
X119094594Y-41349561D01*
X118951737Y-41397180D01*
X118856499Y-41397180D01*
X118713641Y-41349561D01*
X118618403Y-41254323D01*
X118570784Y-41159085D01*
X118523165Y-40968609D01*
X118523165Y-40825752D01*
X118570784Y-40635276D01*
X118618403Y-40540038D01*
X118713641Y-40444800D01*
X118856499Y-40397180D01*
X118951737Y-40397180D01*
X119094594Y-40444800D01*
X119142213Y-40492419D01*
X119523165Y-40492419D02*
X119570784Y-40444800D01*
X119666022Y-40397180D01*
X119904118Y-40397180D01*
X119999356Y-40444800D01*
X120046975Y-40492419D01*
X120094594Y-40587657D01*
X120094594Y-40682895D01*
X120046975Y-40825752D01*
X119475546Y-41397180D01*
X120094594Y-41397180D01*
X79833333Y-75357142D02*
X79785714Y-75404761D01*
X79642857Y-75452380D01*
X79547619Y-75452380D01*
X79404761Y-75404761D01*
X79309523Y-75309523D01*
X79261904Y-75214285D01*
X79214285Y-75023809D01*
X79214285Y-74880952D01*
X79261904Y-74690476D01*
X79309523Y-74595238D01*
X79404761Y-74500000D01*
X79547619Y-74452380D01*
X79642857Y-74452380D01*
X79785714Y-74500000D01*
X79833333Y-74547619D01*
X80166666Y-74452380D02*
X80785714Y-74452380D01*
X80452380Y-74833333D01*
X80595238Y-74833333D01*
X80690476Y-74880952D01*
X80738095Y-74928571D01*
X80785714Y-75023809D01*
X80785714Y-75261904D01*
X80738095Y-75357142D01*
X80690476Y-75404761D01*
X80595238Y-75452380D01*
X80309523Y-75452380D01*
X80214285Y-75404761D01*
X80166666Y-75357142D01*
X116475533Y-65739062D02*
X116427914Y-65786681D01*
X116285057Y-65834300D01*
X116189819Y-65834300D01*
X116046961Y-65786681D01*
X115951723Y-65691443D01*
X115904104Y-65596205D01*
X115856485Y-65405729D01*
X115856485Y-65262872D01*
X115904104Y-65072396D01*
X115951723Y-64977158D01*
X116046961Y-64881920D01*
X116189819Y-64834300D01*
X116285057Y-64834300D01*
X116427914Y-64881920D01*
X116475533Y-64929539D01*
X117332676Y-65167634D02*
X117332676Y-65834300D01*
X117094580Y-64786681D02*
X116856485Y-65500967D01*
X117475533Y-65500967D01*
X61408333Y-51012142D02*
X61360714Y-51059761D01*
X61217857Y-51107380D01*
X61122619Y-51107380D01*
X60979761Y-51059761D01*
X60884523Y-50964523D01*
X60836904Y-50869285D01*
X60789285Y-50678809D01*
X60789285Y-50535952D01*
X60836904Y-50345476D01*
X60884523Y-50250238D01*
X60979761Y-50155000D01*
X61122619Y-50107380D01*
X61217857Y-50107380D01*
X61360714Y-50155000D01*
X61408333Y-50202619D01*
X62313095Y-50107380D02*
X61836904Y-50107380D01*
X61789285Y-50583571D01*
X61836904Y-50535952D01*
X61932142Y-50488333D01*
X62170238Y-50488333D01*
X62265476Y-50535952D01*
X62313095Y-50583571D01*
X62360714Y-50678809D01*
X62360714Y-50916904D01*
X62313095Y-51012142D01*
X62265476Y-51059761D01*
X62170238Y-51107380D01*
X61932142Y-51107380D01*
X61836904Y-51059761D01*
X61789285Y-51012142D01*
X51583333Y-116707142D02*
X51535714Y-116754761D01*
X51392857Y-116802380D01*
X51297619Y-116802380D01*
X51154761Y-116754761D01*
X51059523Y-116659523D01*
X51011904Y-116564285D01*
X50964285Y-116373809D01*
X50964285Y-116230952D01*
X51011904Y-116040476D01*
X51059523Y-115945238D01*
X51154761Y-115850000D01*
X51297619Y-115802380D01*
X51392857Y-115802380D01*
X51535714Y-115850000D01*
X51583333Y-115897619D01*
X52440476Y-115802380D02*
X52250000Y-115802380D01*
X52154761Y-115850000D01*
X52107142Y-115897619D01*
X52011904Y-116040476D01*
X51964285Y-116230952D01*
X51964285Y-116611904D01*
X52011904Y-116707142D01*
X52059523Y-116754761D01*
X52154761Y-116802380D01*
X52345238Y-116802380D01*
X52440476Y-116754761D01*
X52488095Y-116707142D01*
X52535714Y-116611904D01*
X52535714Y-116373809D01*
X52488095Y-116278571D01*
X52440476Y-116230952D01*
X52345238Y-116183333D01*
X52154761Y-116183333D01*
X52059523Y-116230952D01*
X52011904Y-116278571D01*
X51964285Y-116373809D01*
X86173333Y-113877142D02*
X86125714Y-113924761D01*
X85982857Y-113972380D01*
X85887619Y-113972380D01*
X85744761Y-113924761D01*
X85649523Y-113829523D01*
X85601904Y-113734285D01*
X85554285Y-113543809D01*
X85554285Y-113400952D01*
X85601904Y-113210476D01*
X85649523Y-113115238D01*
X85744761Y-113020000D01*
X85887619Y-112972380D01*
X85982857Y-112972380D01*
X86125714Y-113020000D01*
X86173333Y-113067619D01*
X86506666Y-112972380D02*
X87173333Y-112972380D01*
X86744761Y-113972380D01*
X86173333Y-108797142D02*
X86125714Y-108844761D01*
X85982857Y-108892380D01*
X85887619Y-108892380D01*
X85744761Y-108844761D01*
X85649523Y-108749523D01*
X85601904Y-108654285D01*
X85554285Y-108463809D01*
X85554285Y-108320952D01*
X85601904Y-108130476D01*
X85649523Y-108035238D01*
X85744761Y-107940000D01*
X85887619Y-107892380D01*
X85982857Y-107892380D01*
X86125714Y-107940000D01*
X86173333Y-107987619D01*
X86744761Y-108320952D02*
X86649523Y-108273333D01*
X86601904Y-108225714D01*
X86554285Y-108130476D01*
X86554285Y-108082857D01*
X86601904Y-107987619D01*
X86649523Y-107940000D01*
X86744761Y-107892380D01*
X86935238Y-107892380D01*
X87030476Y-107940000D01*
X87078095Y-107987619D01*
X87125714Y-108082857D01*
X87125714Y-108130476D01*
X87078095Y-108225714D01*
X87030476Y-108273333D01*
X86935238Y-108320952D01*
X86744761Y-108320952D01*
X86649523Y-108368571D01*
X86601904Y-108416190D01*
X86554285Y-108511428D01*
X86554285Y-108701904D01*
X86601904Y-108797142D01*
X86649523Y-108844761D01*
X86744761Y-108892380D01*
X86935238Y-108892380D01*
X87030476Y-108844761D01*
X87078095Y-108797142D01*
X87125714Y-108701904D01*
X87125714Y-108511428D01*
X87078095Y-108416190D01*
X87030476Y-108368571D01*
X86935238Y-108320952D01*
X103457142Y-40557142D02*
X103409523Y-40604761D01*
X103266666Y-40652380D01*
X103171428Y-40652380D01*
X103028571Y-40604761D01*
X102933333Y-40509523D01*
X102885714Y-40414285D01*
X102838095Y-40223809D01*
X102838095Y-40080952D01*
X102885714Y-39890476D01*
X102933333Y-39795238D01*
X103028571Y-39700000D01*
X103171428Y-39652380D01*
X103266666Y-39652380D01*
X103409523Y-39700000D01*
X103457142Y-39747619D01*
X104409523Y-40652380D02*
X103838095Y-40652380D01*
X104123809Y-40652380D02*
X104123809Y-39652380D01*
X104028571Y-39795238D01*
X103933333Y-39890476D01*
X103838095Y-39938095D01*
X105028571Y-39652380D02*
X105123809Y-39652380D01*
X105219047Y-39700000D01*
X105266666Y-39747619D01*
X105314285Y-39842857D01*
X105361904Y-40033333D01*
X105361904Y-40271428D01*
X105314285Y-40461904D01*
X105266666Y-40557142D01*
X105219047Y-40604761D01*
X105123809Y-40652380D01*
X105028571Y-40652380D01*
X104933333Y-40604761D01*
X104885714Y-40557142D01*
X104838095Y-40461904D01*
X104790476Y-40271428D01*
X104790476Y-40033333D01*
X104838095Y-39842857D01*
X104885714Y-39747619D01*
X104933333Y-39700000D01*
X105028571Y-39652380D01*
X99538095Y-42502380D02*
X99538095Y-43311904D01*
X99585714Y-43407142D01*
X99633333Y-43454761D01*
X99728571Y-43502380D01*
X99919047Y-43502380D01*
X100014285Y-43454761D01*
X100061904Y-43407142D01*
X100109523Y-43311904D01*
X100109523Y-42502380D01*
X100490476Y-42502380D02*
X101157142Y-42502380D01*
X100728571Y-43502380D01*
D12*
X102980000Y-111210000D02*
X102980000Y-108590000D01*
X102980000Y-108590000D02*
X96560000Y-108590000D01*
X96560000Y-108590000D02*
X96560000Y-111210000D01*
X96560000Y-111210000D02*
X102980000Y-111210000D01*
X103870000Y-109900000D02*
X102980000Y-109900000D01*
X95670000Y-109900000D02*
X96560000Y-109900000D01*
X114910360Y-43582280D02*
G75*
G03*
X116910360Y-43582280I1000000J0D01*
G01*
X114910360Y-43582280D02*
X113260360Y-43582280D01*
X113260360Y-43582280D02*
X113260360Y-64022280D01*
X113260360Y-64022280D02*
X118560360Y-64022280D01*
X118560360Y-64022280D02*
X118560360Y-43582280D01*
X118560360Y-43582280D02*
X116910360Y-43582280D01*
X77242160Y-79956040D02*
X75472160Y-79956040D01*
X75472160Y-79956040D02*
X75472160Y-105596040D01*
X75472160Y-105596040D02*
X81012160Y-105596040D01*
X81012160Y-105596040D02*
X81012160Y-79956040D01*
X81012160Y-79956040D02*
X79242160Y-79956040D01*
X77242160Y-79956040D02*
G75*
G03*
X79242160Y-79956040I1000000J0D01*
G01*
X61230000Y-57030000D02*
X55650000Y-57030000D01*
X55650000Y-57030000D02*
X55650000Y-118230000D01*
X55650000Y-118230000D02*
X68810000Y-118230000D01*
X68810000Y-118230000D02*
X68810000Y-57030000D01*
X68810000Y-57030000D02*
X63230000Y-57030000D01*
X61230000Y-57030000D02*
G75*
G03*
X63230000Y-57030000I1000000J0D01*
G01*
X97687560Y-62826760D02*
X94447560Y-62826760D01*
X97687560Y-60586760D02*
X94447560Y-60586760D01*
X97687560Y-62826760D02*
X97687560Y-62761760D01*
X97687560Y-60651760D02*
X97687560Y-60586760D01*
X94447560Y-62826760D02*
X94447560Y-62761760D01*
X94447560Y-60651760D02*
X94447560Y-60586760D01*
X55810000Y-46870000D02*
X53190000Y-46870000D01*
X53190000Y-46870000D02*
X53190000Y-53290000D01*
X53190000Y-53290000D02*
X55810000Y-53290000D01*
X55810000Y-53290000D02*
X55810000Y-46870000D01*
X54500000Y-45980000D02*
X54500000Y-46870000D01*
X54500000Y-54180000D02*
X54500000Y-53290000D01*
X116241320Y-69901760D02*
G75*
G03*
X118241320Y-69901760I1000000J0D01*
G01*
X116241320Y-69901760D02*
X110781320Y-69901760D01*
X110781320Y-69901760D02*
X110781320Y-105581760D01*
X110781320Y-105581760D02*
X123701320Y-105581760D01*
X123701320Y-105581760D02*
X123701320Y-69901760D01*
X123701320Y-69901760D02*
X118241320Y-69901760D01*
X63630722Y-39460278D02*
G75*
G03*
X59019420Y-39460000I-2305722J-1179722D01*
G01*
X59019420Y-41820000D02*
G75*
G03*
X63630722Y-41819722I2305580J1180000D01*
G01*
X63630722Y-41819722D02*
G75*
G03*
X63630580Y-39460000I-2305722J1179722D01*
G01*
X61325000Y-38090000D02*
X61325000Y-43190000D01*
X61365000Y-38090000D02*
X61365000Y-39660000D01*
X61365000Y-41620000D02*
X61365000Y-43190000D01*
X61405000Y-38091000D02*
X61405000Y-39660000D01*
X61405000Y-41620000D02*
X61405000Y-43189000D01*
X61445000Y-38092000D02*
X61445000Y-39660000D01*
X61445000Y-41620000D02*
X61445000Y-43188000D01*
X61485000Y-38094000D02*
X61485000Y-39660000D01*
X61485000Y-41620000D02*
X61485000Y-43186000D01*
X61525000Y-38097000D02*
X61525000Y-39660000D01*
X61525000Y-41620000D02*
X61525000Y-43183000D01*
X61565000Y-38101000D02*
X61565000Y-39660000D01*
X61565000Y-41620000D02*
X61565000Y-43179000D01*
X61605000Y-38105000D02*
X61605000Y-39660000D01*
X61605000Y-41620000D02*
X61605000Y-43175000D01*
X61645000Y-38109000D02*
X61645000Y-39660000D01*
X61645000Y-41620000D02*
X61645000Y-43171000D01*
X61685000Y-38115000D02*
X61685000Y-39660000D01*
X61685000Y-41620000D02*
X61685000Y-43165000D01*
X61725000Y-38121000D02*
X61725000Y-39660000D01*
X61725000Y-41620000D02*
X61725000Y-43159000D01*
X61765000Y-38127000D02*
X61765000Y-39660000D01*
X61765000Y-41620000D02*
X61765000Y-43153000D01*
X61805000Y-38134000D02*
X61805000Y-39660000D01*
X61805000Y-41620000D02*
X61805000Y-43146000D01*
X61845000Y-38142000D02*
X61845000Y-39660000D01*
X61845000Y-41620000D02*
X61845000Y-43138000D01*
X61885000Y-38151000D02*
X61885000Y-39660000D01*
X61885000Y-41620000D02*
X61885000Y-43129000D01*
X61925000Y-38160000D02*
X61925000Y-39660000D01*
X61925000Y-41620000D02*
X61925000Y-43120000D01*
X61965000Y-38170000D02*
X61965000Y-39660000D01*
X61965000Y-41620000D02*
X61965000Y-43110000D01*
X62005000Y-38180000D02*
X62005000Y-39660000D01*
X62005000Y-41620000D02*
X62005000Y-43100000D01*
X62046000Y-38192000D02*
X62046000Y-39660000D01*
X62046000Y-41620000D02*
X62046000Y-43088000D01*
X62086000Y-38204000D02*
X62086000Y-39660000D01*
X62086000Y-41620000D02*
X62086000Y-43076000D01*
X62126000Y-38216000D02*
X62126000Y-39660000D01*
X62126000Y-41620000D02*
X62126000Y-43064000D01*
X62166000Y-38230000D02*
X62166000Y-39660000D01*
X62166000Y-41620000D02*
X62166000Y-43050000D01*
X62206000Y-38244000D02*
X62206000Y-39660000D01*
X62206000Y-41620000D02*
X62206000Y-43036000D01*
X62246000Y-38258000D02*
X62246000Y-39660000D01*
X62246000Y-41620000D02*
X62246000Y-43022000D01*
X62286000Y-38274000D02*
X62286000Y-39660000D01*
X62286000Y-41620000D02*
X62286000Y-43006000D01*
X62326000Y-38290000D02*
X62326000Y-39660000D01*
X62326000Y-41620000D02*
X62326000Y-42990000D01*
X62366000Y-38307000D02*
X62366000Y-39660000D01*
X62366000Y-41620000D02*
X62366000Y-42973000D01*
X62406000Y-38325000D02*
X62406000Y-39660000D01*
X62406000Y-41620000D02*
X62406000Y-42955000D01*
X62446000Y-38344000D02*
X62446000Y-39660000D01*
X62446000Y-41620000D02*
X62446000Y-42936000D01*
X62486000Y-38364000D02*
X62486000Y-39660000D01*
X62486000Y-41620000D02*
X62486000Y-42916000D01*
X62526000Y-38384000D02*
X62526000Y-39660000D01*
X62526000Y-41620000D02*
X62526000Y-42896000D01*
X62566000Y-38406000D02*
X62566000Y-39660000D01*
X62566000Y-41620000D02*
X62566000Y-42874000D01*
X62606000Y-38428000D02*
X62606000Y-39660000D01*
X62606000Y-41620000D02*
X62606000Y-42852000D01*
X62646000Y-38451000D02*
X62646000Y-39660000D01*
X62646000Y-41620000D02*
X62646000Y-42829000D01*
X62686000Y-38475000D02*
X62686000Y-39660000D01*
X62686000Y-41620000D02*
X62686000Y-42805000D01*
X62726000Y-38500000D02*
X62726000Y-39660000D01*
X62726000Y-41620000D02*
X62726000Y-42780000D01*
X62766000Y-38527000D02*
X62766000Y-39660000D01*
X62766000Y-41620000D02*
X62766000Y-42753000D01*
X62806000Y-38554000D02*
X62806000Y-39660000D01*
X62806000Y-41620000D02*
X62806000Y-42726000D01*
X62846000Y-38582000D02*
X62846000Y-39660000D01*
X62846000Y-41620000D02*
X62846000Y-42698000D01*
X62886000Y-38612000D02*
X62886000Y-39660000D01*
X62886000Y-41620000D02*
X62886000Y-42668000D01*
X62926000Y-38643000D02*
X62926000Y-39660000D01*
X62926000Y-41620000D02*
X62926000Y-42637000D01*
X62966000Y-38675000D02*
X62966000Y-39660000D01*
X62966000Y-41620000D02*
X62966000Y-42605000D01*
X63006000Y-38708000D02*
X63006000Y-39660000D01*
X63006000Y-41620000D02*
X63006000Y-42572000D01*
X63046000Y-38743000D02*
X63046000Y-39660000D01*
X63046000Y-41620000D02*
X63046000Y-42537000D01*
X63086000Y-38779000D02*
X63086000Y-39660000D01*
X63086000Y-41620000D02*
X63086000Y-42501000D01*
X63126000Y-38817000D02*
X63126000Y-39660000D01*
X63126000Y-41620000D02*
X63126000Y-42463000D01*
X63166000Y-38857000D02*
X63166000Y-39660000D01*
X63166000Y-41620000D02*
X63166000Y-42423000D01*
X63206000Y-38898000D02*
X63206000Y-39660000D01*
X63206000Y-41620000D02*
X63206000Y-42382000D01*
X63246000Y-38941000D02*
X63246000Y-39660000D01*
X63246000Y-41620000D02*
X63246000Y-42339000D01*
X63286000Y-38986000D02*
X63286000Y-39660000D01*
X63286000Y-41620000D02*
X63286000Y-42294000D01*
X63326000Y-39034000D02*
X63326000Y-42246000D01*
X63366000Y-39084000D02*
X63366000Y-42196000D01*
X63406000Y-39136000D02*
X63406000Y-42144000D01*
X63446000Y-39192000D02*
X63446000Y-42088000D01*
X63486000Y-39250000D02*
X63486000Y-42030000D01*
X63526000Y-39313000D02*
X63526000Y-41967000D01*
X63566000Y-39379000D02*
X63566000Y-41901000D01*
X63606000Y-39451000D02*
X63606000Y-41829000D01*
X63646000Y-39528000D02*
X63646000Y-41752000D01*
X63686000Y-39612000D02*
X63686000Y-41668000D01*
X63726000Y-39706000D02*
X63726000Y-41574000D01*
X63766000Y-39811000D02*
X63766000Y-41469000D01*
X63806000Y-39933000D02*
X63806000Y-41347000D01*
X63846000Y-40081000D02*
X63846000Y-41199000D01*
X63886000Y-40286000D02*
X63886000Y-40994000D01*
X58125000Y-40640000D02*
X59325000Y-40640000D01*
X58725000Y-39990000D02*
X58725000Y-41290000D01*
X102980000Y-118060000D02*
X102980000Y-115440000D01*
X102980000Y-115440000D02*
X96560000Y-115440000D01*
X96560000Y-115440000D02*
X96560000Y-118060000D01*
X96560000Y-118060000D02*
X102980000Y-118060000D01*
X103870000Y-116750000D02*
X102980000Y-116750000D01*
X95670000Y-116750000D02*
X96560000Y-116750000D01*
X49910000Y-108770000D02*
X47290000Y-108770000D01*
X47290000Y-108770000D02*
X47290000Y-115190000D01*
X47290000Y-115190000D02*
X49910000Y-115190000D01*
X49910000Y-115190000D02*
X49910000Y-108770000D01*
X48600000Y-107880000D02*
X48600000Y-108770000D01*
X48600000Y-116080000D02*
X48600000Y-115190000D01*
X73462040Y-49468120D02*
X73462040Y-46848120D01*
X73462040Y-46848120D02*
X67042040Y-46848120D01*
X67042040Y-46848120D02*
X67042040Y-49468120D01*
X67042040Y-49468120D02*
X73462040Y-49468120D01*
X74352040Y-48158120D02*
X73462040Y-48158120D01*
X66152040Y-48158120D02*
X67042040Y-48158120D01*
X77308720Y-43342920D02*
X77308720Y-45962920D01*
X77308720Y-45962920D02*
X83728720Y-45962920D01*
X83728720Y-45962920D02*
X83728720Y-43342920D01*
X83728720Y-43342920D02*
X77308720Y-43342920D01*
X76418720Y-44652920D02*
X77308720Y-44652920D01*
X84618720Y-44652920D02*
X83728720Y-44652920D01*
X73746520Y-38678200D02*
X73746520Y-36058200D01*
X73746520Y-36058200D02*
X67326520Y-36058200D01*
X67326520Y-36058200D02*
X67326520Y-38678200D01*
X67326520Y-38678200D02*
X73746520Y-38678200D01*
X74636520Y-37368200D02*
X73746520Y-37368200D01*
X66436520Y-37368200D02*
X67326520Y-37368200D01*
X73746520Y-41980200D02*
X73746520Y-39360200D01*
X73746520Y-39360200D02*
X67326520Y-39360200D01*
X67326520Y-39360200D02*
X67326520Y-41980200D01*
X67326520Y-41980200D02*
X73746520Y-41980200D01*
X74636520Y-40670200D02*
X73746520Y-40670200D01*
X66436520Y-40670200D02*
X67326520Y-40670200D01*
X48950240Y-57877000D02*
X46330240Y-57877000D01*
X46330240Y-57877000D02*
X46330240Y-64297000D01*
X46330240Y-64297000D02*
X48950240Y-64297000D01*
X48950240Y-64297000D02*
X48950240Y-57877000D01*
X47640240Y-56987000D02*
X47640240Y-57877000D01*
X47640240Y-65187000D02*
X47640240Y-64297000D01*
X89890000Y-115530000D02*
X92510000Y-115530000D01*
X92510000Y-115530000D02*
X92510000Y-109110000D01*
X92510000Y-109110000D02*
X89890000Y-109110000D01*
X89890000Y-109110000D02*
X89890000Y-115530000D01*
X91200000Y-116420000D02*
X91200000Y-115530000D01*
X91200000Y-108220000D02*
X91200000Y-109110000D01*
X95189800Y-64888760D02*
X89609800Y-64888760D01*
X89609800Y-64888760D02*
X89609800Y-105768760D01*
X89609800Y-105768760D02*
X102769800Y-105768760D01*
X102769800Y-105768760D02*
X102769800Y-64888760D01*
X102769800Y-64888760D02*
X97189800Y-64888760D01*
X95189800Y-64888760D02*
G75*
G03*
X97189800Y-64888760I1000000J0D01*
G01*
X66145000Y-54555000D02*
X69745000Y-54555000D01*
X67945000Y-50104999D02*
G75*
G03*
X66106522Y-54543478I0J-2600001D01*
G01*
X69783478Y-54543478D02*
G75*
G03*
X67945000Y-50105000I-1838478J1838478D01*
G01*
X81265000Y-109805000D02*
X81265000Y-116055000D01*
X76215000Y-109805000D02*
X76215000Y-116055000D01*
X81265000Y-109805000D02*
G75*
G03*
X76215000Y-109805000I-2525000J0D01*
G01*
X76215000Y-116055000D02*
G75*
G03*
X81265000Y-116055000I2525000J0D01*
G01*
X113737080Y-35816720D02*
X121477080Y-35816720D01*
X121477080Y-35816720D02*
X121477080Y-33156720D01*
X121477080Y-33156720D02*
X113737080Y-33156720D01*
X113737080Y-33156720D02*
X113737080Y-35816720D01*
X114687080Y-33156720D02*
X114687080Y-27156720D01*
X114687080Y-27156720D02*
X115447080Y-27156720D01*
X115447080Y-27156720D02*
X115447080Y-33156720D01*
X114747080Y-33156720D02*
X114747080Y-27156720D01*
X114867080Y-33156720D02*
X114867080Y-27156720D01*
X114987080Y-33156720D02*
X114987080Y-27156720D01*
X115107080Y-33156720D02*
X115107080Y-27156720D01*
X115227080Y-33156720D02*
X115227080Y-27156720D01*
X115347080Y-33156720D02*
X115347080Y-27156720D01*
X114687080Y-36146720D02*
X114687080Y-35816720D01*
X115447080Y-36146720D02*
X115447080Y-35816720D01*
X116337080Y-35816720D02*
X116337080Y-33156720D01*
X117227080Y-33156720D02*
X117227080Y-27156720D01*
X117227080Y-27156720D02*
X117987080Y-27156720D01*
X117987080Y-27156720D02*
X117987080Y-33156720D01*
X117227080Y-36213791D02*
X117227080Y-35816720D01*
X117987080Y-36213791D02*
X117987080Y-35816720D01*
X118877080Y-35816720D02*
X118877080Y-33156720D01*
X119767080Y-33156720D02*
X119767080Y-27156720D01*
X119767080Y-27156720D02*
X120527080Y-27156720D01*
X120527080Y-27156720D02*
X120527080Y-33156720D01*
X119767080Y-36213791D02*
X119767080Y-35816720D01*
X120527080Y-36213791D02*
X120527080Y-35816720D01*
X115067080Y-38526720D02*
X113797080Y-38526720D01*
X113797080Y-38526720D02*
X113797080Y-37256720D01*
X78050000Y-36070000D02*
X78050000Y-38730000D01*
X98430000Y-36070000D02*
X78050000Y-36070000D01*
X98430000Y-38730000D02*
X78050000Y-38730000D01*
X98430000Y-36070000D02*
X98430000Y-38730000D01*
X99700000Y-36070000D02*
X101030000Y-36070000D01*
X101030000Y-36070000D02*
X101030000Y-37400000D01*
X47346560Y-42637400D02*
X48676560Y-42637400D01*
X47346560Y-43967400D02*
X47346560Y-42637400D01*
X47346560Y-45237400D02*
X50006560Y-45237400D01*
X50006560Y-45237400D02*
X50006560Y-50377400D01*
X47346560Y-45237400D02*
X47346560Y-50377400D01*
X47346560Y-50377400D02*
X50006560Y-50377400D01*
X64830000Y-120590000D02*
X64830000Y-121920000D01*
X63500000Y-120590000D02*
X64830000Y-120590000D01*
X62230000Y-120590000D02*
X62230000Y-123250000D01*
X62230000Y-123250000D02*
X59630000Y-123250000D01*
X62230000Y-120590000D02*
X59630000Y-120590000D01*
X59630000Y-120590000D02*
X59630000Y-123250000D01*
X52010000Y-120590000D02*
X52010000Y-123250000D01*
X54610000Y-120590000D02*
X52010000Y-120590000D01*
X54610000Y-123250000D02*
X52010000Y-123250000D01*
X54610000Y-120590000D02*
X54610000Y-123250000D01*
X55880000Y-120590000D02*
X57210000Y-120590000D01*
X57210000Y-120590000D02*
X57210000Y-121920000D01*
X125177240Y-54761440D02*
X127837240Y-54761440D01*
X125177240Y-49621440D02*
X125177240Y-54761440D01*
X127837240Y-49621440D02*
X127837240Y-54761440D01*
X125177240Y-49621440D02*
X127837240Y-49621440D01*
X125177240Y-48351440D02*
X125177240Y-47021440D01*
X125177240Y-47021440D02*
X126507240Y-47021440D01*
X43892160Y-36510920D02*
X43892160Y-39170920D01*
X54112160Y-36510920D02*
X43892160Y-36510920D01*
X54112160Y-39170920D02*
X43892160Y-39170920D01*
X54112160Y-36510920D02*
X54112160Y-39170920D01*
X55382160Y-36510920D02*
X56712160Y-36510920D01*
X56712160Y-36510920D02*
X56712160Y-37840920D01*
X47140040Y-96290440D02*
X47140040Y-80930440D01*
X47140040Y-80930440D02*
X44480040Y-80930440D01*
X44480040Y-80930440D02*
X44480040Y-96290440D01*
X44480040Y-96290440D02*
X47140040Y-96290440D01*
X44480040Y-95340440D02*
X38480040Y-95340440D01*
X38480040Y-95340440D02*
X38480040Y-94580440D01*
X38480040Y-94580440D02*
X44480040Y-94580440D01*
X44480040Y-95280440D02*
X38480040Y-95280440D01*
X44480040Y-95160440D02*
X38480040Y-95160440D01*
X44480040Y-95040440D02*
X38480040Y-95040440D01*
X44480040Y-94920440D02*
X38480040Y-94920440D01*
X44480040Y-94800440D02*
X38480040Y-94800440D01*
X44480040Y-94680440D02*
X38480040Y-94680440D01*
X47470040Y-95340440D02*
X47140040Y-95340440D01*
X47470040Y-94580440D02*
X47140040Y-94580440D01*
X47140040Y-93690440D02*
X44480040Y-93690440D01*
X44480040Y-92800440D02*
X38480040Y-92800440D01*
X38480040Y-92800440D02*
X38480040Y-92040440D01*
X38480040Y-92040440D02*
X44480040Y-92040440D01*
X47537111Y-92800440D02*
X47140040Y-92800440D01*
X47537111Y-92040440D02*
X47140040Y-92040440D01*
X47140040Y-91150440D02*
X44480040Y-91150440D01*
X44480040Y-90260440D02*
X38480040Y-90260440D01*
X38480040Y-90260440D02*
X38480040Y-89500440D01*
X38480040Y-89500440D02*
X44480040Y-89500440D01*
X47537111Y-90260440D02*
X47140040Y-90260440D01*
X47537111Y-89500440D02*
X47140040Y-89500440D01*
X47140040Y-88610440D02*
X44480040Y-88610440D01*
X44480040Y-87720440D02*
X38480040Y-87720440D01*
X38480040Y-87720440D02*
X38480040Y-86960440D01*
X38480040Y-86960440D02*
X44480040Y-86960440D01*
X47537111Y-87720440D02*
X47140040Y-87720440D01*
X47537111Y-86960440D02*
X47140040Y-86960440D01*
X47140040Y-86070440D02*
X44480040Y-86070440D01*
X44480040Y-85180440D02*
X38480040Y-85180440D01*
X38480040Y-85180440D02*
X38480040Y-84420440D01*
X38480040Y-84420440D02*
X44480040Y-84420440D01*
X47537111Y-85180440D02*
X47140040Y-85180440D01*
X47537111Y-84420440D02*
X47140040Y-84420440D01*
X47140040Y-83530440D02*
X44480040Y-83530440D01*
X44480040Y-82640440D02*
X38480040Y-82640440D01*
X38480040Y-82640440D02*
X38480040Y-81880440D01*
X38480040Y-81880440D02*
X44480040Y-81880440D01*
X47537111Y-82640440D02*
X47140040Y-82640440D01*
X47537111Y-81880440D02*
X47140040Y-81880440D01*
X49850040Y-94960440D02*
X49850040Y-96230440D01*
X49850040Y-96230440D02*
X48580040Y-96230440D01*
X116498400Y-40243240D02*
X115240400Y-40243240D01*
X116498400Y-42083240D02*
X115240400Y-42083240D01*
X81294000Y-78390000D02*
X80036000Y-78390000D01*
X81294000Y-76550000D02*
X80036000Y-76550000D01*
X116013200Y-68351920D02*
X117271200Y-68351920D01*
X116013200Y-66511920D02*
X117271200Y-66511920D01*
X60946000Y-51785000D02*
X62204000Y-51785000D01*
X60946000Y-53625000D02*
X62204000Y-53625000D01*
X52470000Y-112221000D02*
X52470000Y-113479000D01*
X50630000Y-112221000D02*
X50630000Y-113479000D01*
X85711000Y-114650000D02*
X86969000Y-114650000D01*
X85711000Y-116490000D02*
X86969000Y-116490000D01*
X85711000Y-111410000D02*
X86969000Y-111410000D01*
X85711000Y-109570000D02*
X86969000Y-109570000D01*
X104879000Y-43270000D02*
X103621000Y-43270000D01*
X104879000Y-41430000D02*
X103621000Y-41430000D01*
X102610000Y-44170000D02*
G75*
G03*
X104610000Y-44170000I1000000J0D01*
G01*
X102610000Y-44170000D02*
X100960000Y-44170000D01*
X100960000Y-44170000D02*
X100960000Y-62070000D01*
X100960000Y-62070000D02*
X106260000Y-62070000D01*
X106260000Y-62070000D02*
X106260000Y-44170000D01*
X106260000Y-44170000D02*
X104610000Y-44170000D01*
%LPC*%
D13*
X104850000Y-109900000D03*
D14*
X94690000Y-109900000D03*
D15*
X112100360Y-44912280D03*
D14*
X119720360Y-62692280D03*
X112100360Y-47452280D03*
X119720360Y-60152280D03*
X112100360Y-49992280D03*
X119720360Y-57612280D03*
X112100360Y-52532280D03*
X119720360Y-55072280D03*
X112100360Y-55072280D03*
X119720360Y-52532280D03*
X112100360Y-57612280D03*
X119720360Y-49992280D03*
X112100360Y-60152280D03*
X119720360Y-47452280D03*
X112100360Y-62692280D03*
X119720360Y-44912280D03*
D15*
X74432160Y-81346040D03*
D14*
X82052160Y-104206040D03*
X74432160Y-83886040D03*
X82052160Y-101666040D03*
X74432160Y-86426040D03*
X82052160Y-99126040D03*
X74432160Y-88966040D03*
X82052160Y-96586040D03*
X74432160Y-91506040D03*
X82052160Y-94046040D03*
X74432160Y-94046040D03*
X82052160Y-91506040D03*
X74432160Y-96586040D03*
X82052160Y-88966040D03*
X74432160Y-99126040D03*
X82052160Y-86426040D03*
X74432160Y-101666040D03*
X82052160Y-83886040D03*
X74432160Y-104206040D03*
X82052160Y-81346040D03*
D15*
X54610000Y-58420000D03*
D14*
X69850000Y-116840000D03*
X54610000Y-60960000D03*
X69850000Y-114300000D03*
X54610000Y-63500000D03*
X69850000Y-111760000D03*
X54610000Y-66040000D03*
X69850000Y-109220000D03*
X54610000Y-68580000D03*
X69850000Y-106680000D03*
X54610000Y-71120000D03*
X69850000Y-104140000D03*
X54610000Y-73660000D03*
X69850000Y-101600000D03*
X54610000Y-76200000D03*
X69850000Y-99060000D03*
X54610000Y-78740000D03*
X69850000Y-96520000D03*
X54610000Y-81280000D03*
X69850000Y-93980000D03*
X54610000Y-83820000D03*
X69850000Y-91440000D03*
X54610000Y-86360000D03*
X69850000Y-88900000D03*
X54610000Y-88900000D03*
X69850000Y-86360000D03*
X54610000Y-91440000D03*
X69850000Y-83820000D03*
X54610000Y-93980000D03*
X69850000Y-81280000D03*
X54610000Y-96520000D03*
X69850000Y-78740000D03*
X54610000Y-99060000D03*
X69850000Y-76200000D03*
X54610000Y-101600000D03*
X69850000Y-73660000D03*
X54610000Y-104140000D03*
X69850000Y-71120000D03*
X54610000Y-106680000D03*
X69850000Y-68580000D03*
X54610000Y-109220000D03*
X69850000Y-66040000D03*
X54610000Y-111760000D03*
X69850000Y-63500000D03*
X54610000Y-114300000D03*
X69850000Y-60960000D03*
X54610000Y-116840000D03*
X69850000Y-58420000D03*
D13*
X97317560Y-61706760D03*
X94817560Y-61706760D03*
X54500000Y-45000000D03*
D14*
X54500000Y-55160000D03*
D15*
X109621320Y-71231760D03*
D14*
X124861320Y-104251760D03*
X109621320Y-73771760D03*
X124861320Y-101711760D03*
X109621320Y-76311760D03*
X124861320Y-99171760D03*
X109621320Y-78851760D03*
X124861320Y-96631760D03*
X109621320Y-81391760D03*
X124861320Y-94091760D03*
X109621320Y-83931760D03*
X124861320Y-91551760D03*
X109621320Y-86471760D03*
X124861320Y-89011760D03*
X109621320Y-89011760D03*
X124861320Y-86471760D03*
X109621320Y-91551760D03*
X124861320Y-83931760D03*
X109621320Y-94091760D03*
X124861320Y-81391760D03*
X109621320Y-96631760D03*
X124861320Y-78851760D03*
X109621320Y-99171760D03*
X124861320Y-76311760D03*
X109621320Y-101711760D03*
X124861320Y-73771760D03*
X109621320Y-104251760D03*
X124861320Y-71231760D03*
D15*
X60325000Y-40640000D03*
D13*
X62325000Y-40640000D03*
X104850000Y-116750000D03*
D14*
X94690000Y-116750000D03*
D13*
X48600000Y-106900000D03*
D14*
X48600000Y-117060000D03*
D13*
X75332040Y-48158120D03*
D14*
X65172040Y-48158120D03*
D13*
X75438720Y-44652920D03*
D14*
X85598720Y-44652920D03*
D13*
X75616520Y-37368200D03*
D14*
X65456520Y-37368200D03*
D13*
X75616520Y-40670200D03*
D14*
X65456520Y-40670200D03*
D13*
X47640240Y-56007000D03*
D14*
X47640240Y-66167000D03*
D13*
X91200000Y-117400000D03*
D14*
X91200000Y-107240000D03*
D15*
X88569800Y-66278760D03*
D14*
X103809800Y-104378760D03*
X88569800Y-68818760D03*
X103809800Y-101838760D03*
X88569800Y-71358760D03*
X103809800Y-99298760D03*
X88569800Y-73898760D03*
X103809800Y-96758760D03*
X88569800Y-76438760D03*
X103809800Y-94218760D03*
X88569800Y-78978760D03*
X103809800Y-91678760D03*
X88569800Y-81518760D03*
X103809800Y-89138760D03*
X88569800Y-84058760D03*
X103809800Y-86598760D03*
X88569800Y-86598760D03*
X103809800Y-84058760D03*
X88569800Y-89138760D03*
X103809800Y-81518760D03*
X88569800Y-91678760D03*
X103809800Y-78978760D03*
X88569800Y-94218760D03*
X103809800Y-76438760D03*
X88569800Y-96758760D03*
X103809800Y-73898760D03*
X88569800Y-99298760D03*
X103809800Y-71358760D03*
X88569800Y-101838760D03*
X103809800Y-68818760D03*
X88569800Y-104378760D03*
X103809800Y-66278760D03*
D16*
X67945000Y-52705000D03*
X69215000Y-52705000D03*
D17*
X66675000Y-52705000D03*
D18*
X78740000Y-110490000D03*
X78740000Y-115370000D03*
D19*
X115067080Y-37256720D03*
D20*
X117607080Y-37256720D03*
X120147080Y-37256720D03*
D21*
X99700000Y-37400000D03*
D20*
X97160000Y-37400000D03*
X94620000Y-37400000D03*
X92080000Y-37400000D03*
X89540000Y-37400000D03*
X87000000Y-37400000D03*
X84460000Y-37400000D03*
X81920000Y-37400000D03*
X79380000Y-37400000D03*
X48676560Y-49047400D03*
X48676560Y-46507400D03*
D22*
X48676560Y-43967400D03*
D20*
X60960000Y-121920000D03*
D21*
X63500000Y-121920000D03*
X55880000Y-121920000D03*
D20*
X53340000Y-121920000D03*
D22*
X126507240Y-48351440D03*
D20*
X126507240Y-50891440D03*
X126507240Y-53431440D03*
D21*
X55382160Y-37840920D03*
D20*
X52842160Y-37840920D03*
X50302160Y-37840920D03*
X47762160Y-37840920D03*
X45222160Y-37840920D03*
D23*
X48580040Y-94960440D03*
D20*
X48580040Y-92420440D03*
X48580040Y-89880440D03*
X48580040Y-87340440D03*
X48580040Y-84800440D03*
X48580040Y-82260440D03*
D13*
X114619400Y-41163240D03*
X117119400Y-41163240D03*
X81915000Y-77470000D03*
X79415000Y-77470000D03*
X117892200Y-67431920D03*
X115392200Y-67431920D03*
X60325000Y-52705000D03*
X62825000Y-52705000D03*
X51550000Y-111600000D03*
X51550000Y-114100000D03*
X85090000Y-115570000D03*
X87590000Y-115570000D03*
X87590000Y-110490000D03*
X85090000Y-110490000D03*
X105500000Y-42350000D03*
X103000000Y-42350000D03*
D15*
X99800000Y-45500000D03*
D14*
X107420000Y-60740000D03*
X99800000Y-48040000D03*
X107420000Y-58200000D03*
X99800000Y-50580000D03*
X107420000Y-55660000D03*
X99800000Y-53120000D03*
X107420000Y-53120000D03*
X99800000Y-55660000D03*
X107420000Y-50580000D03*
X99800000Y-58200000D03*
X107420000Y-48040000D03*
X99800000Y-60740000D03*
X107420000Y-45500000D03*
M02*
